<svg viewBox="0 0 202 31" fill="none" xmlns="http://www.w3.org/2000/svg">
<path d="M2 9.99999L16.0925 25.3737C21.2634 31.0146 30.4711 29.7833 33.9781 22.9819L41.7232 7.96111C45.8199 0.0160172 57.1801 0.0160382 61.2768 7.96113L66.4732 18.0389C70.5699 25.984 81.9301 25.984 86.0268 18.0389L91.2232 7.96111C95.3199 0.0160215 106.68 0.0160426 110.777 7.96113L115.973 18.0389C120.07 25.984 131.43 25.984 135.527 18.0389L140.723 7.96112C144.82 0.0160259 156.18 0.0160469 160.277 7.96114L168.022 22.9819C171.529 29.7833 180.737 31.0146 185.907 25.3737L200 10" stroke="#EE68BA" stroke-width="3" stroke-linecap="round"/>
</svg>
