<svg width="30" height="20" viewBox="0 0 30 20" fill="none" xmlns="http://www.w3.org/2000/svg">
<path d="M8.7793 3.19922H21.2183V16.7992H8.7793V3.19922Z" fill="white"/>
<path d="M8.7793 3.19922V16.7992H21.2183V14.6504H19.5017L18.8673 13.839L18.2081 14.6504H13.332V10.3302H11.7231L13.7343 5.35264H15.6912L16.1638 6.48144V5.35264H18.5937L18.9999 6.53584L19.398 5.35264H21.2183V3.19922H8.7793ZM19.8127 6.05522L19.1741 7.89584L19.0042 8.39468L18.83 7.89584L18.1874 6.05522H16.7818V9.68206H17.6277V7.32028L17.6234 6.84402L17.7894 7.32028L18.5979 9.68206H19.4022L20.215 7.32028L20.3725 6.84864V9.68206H21.2183V6.05522H19.8127ZM14.1903 6.05522L12.7225 9.68206H13.6843L13.9415 8.98384H15.5504L15.8073 9.68206H16.7818L15.3222 6.05522H14.1903ZM14.5799 7.28384L14.7458 6.83068L14.9117 7.28384L15.2558 8.1994H14.2358L14.5799 7.28384ZM19.8791 10.3349L18.8798 11.5088L17.8847 10.3349H14.0119V13.9478H16.7818V13.1637H14.8578V12.5334H16.7445V11.7539H14.8578V11.119H16.7818V10.3349L18.3282 12.148L16.7818 13.9478H17.8516L18.8591 12.7693L19.8625 13.9478H20.9611L19.4104 12.1344L20.9611 10.3349H19.8791ZM20.2812 12.1301L21.2183 13.1726V11.1008L20.2812 12.1301Z" fill="#006FCF"/>
<rect x="0.5" y="0.5" width="29" height="19" rx="3.5" stroke="#D8D8D8"/>
</svg>
