<svg width="41" height="25" viewBox="0 0 41 25" fill="none" xmlns="http://www.w3.org/2000/svg">
<path d="M12 4H29V21H12V4Z" fill="white"/>
<path d="M12 4V21H29V18.314H26.654L25.787 17.2998L24.886 18.314H18.222V12.9138H16.0232L18.7718 6.69178H21.4462L22.0922 8.10278V6.69178H25.413L25.9682 8.17078L26.5122 6.69178H29V4H12ZM27.079 7.57L26.2062 9.87078L25.974 10.4943L25.736 9.87078L24.8578 7.57H22.9368V12.1036H24.0928V9.15133L24.087 8.556L24.3138 9.15133L25.4188 12.1036H26.518L27.6288 9.15133L27.844 8.56178V12.1036H29V7.57H27.079ZM19.395 7.57L17.389 12.1036H18.7034L19.055 11.2308H21.2538L21.605 12.1036H22.9368L20.942 7.57H19.395ZM19.9274 9.10578L20.1542 8.53933L20.381 9.10578L20.8512 10.2502H19.4572L19.9274 9.10578ZM27.1698 12.9196L25.804 14.387L24.444 12.9196H19.1512V17.4358H22.9368V16.4556H20.3072V15.6678H22.8858V14.6933H20.3072V13.8998H22.9368V12.9196L25.0502 15.186L22.9368 17.4358H24.3988L25.7758 15.9626L27.147 17.4358H28.6484L26.5292 15.169L28.6484 12.9196H27.1698ZM27.7192 15.1636L29 16.4668V13.877L27.7192 15.1636Z" fill="#006FCF"/>
<rect x="0.5" y="0.5" width="40" height="24" rx="1.5" stroke="#F6F6F6"/>
</svg>
