<svg width="141" height="42" viewBox="0 0 141 42" fill="none" xmlns="http://www.w3.org/2000/svg">
<g id="Download on the App Store 1" clip-path="url(#clip0_1_106002)">
<g id="Group">
<g id="Group_2">
<g id="Group_3">
<path id="Vector" d="M129.761 0.030503H11.2731C10.8277 0.030503 10.4165 0.030503 9.97108 0.030503C9.59417 0.030503 9.25152 0.030503 8.87461 0.030503C8.08651 0.030503 7.29842 0.0915023 6.51033 0.213507C5.72224 0.335511 4.96841 0.549022 4.28311 0.884534C3.56355 1.22005 2.94678 1.61656 2.36428 2.13508C1.81604 2.62309 1.33633 3.20262 0.959418 3.84314C0.616769 4.48366 0.34265 5.15469 0.239856 5.82571C0.102796 6.52724 0.034267 7.22876 0.034267 7.93028C0.034267 8.2658 0.0342649 8.57081 0 8.90632V33.1547C0 33.4902 2.09085e-06 33.7952 0.034267 34.1307C0.034267 34.8322 0.102796 35.5338 0.239856 36.2353C0.376915 36.9368 0.616769 37.6078 0.959418 38.2179C1.30207 38.8584 1.78177 39.4074 2.36428 39.8954C2.91252 40.3834 3.56355 40.8105 4.28311 41.146C5.00267 41.451 5.7565 41.695 6.51033 41.817C7.29842 41.939 8.08651 42 8.87461 42C9.25152 42 9.59417 42 9.97108 42C10.4165 42 10.8277 42 11.2731 42H129.761C130.172 42 130.618 42 131.029 42C131.372 42 131.748 42 132.125 42C132.913 42 133.702 41.939 134.49 41.817C135.278 41.695 136.032 41.4815 136.751 41.146C137.471 40.841 138.087 40.4139 138.67 39.8954C139.218 39.4074 139.698 38.8279 140.075 38.2179C140.417 37.5773 140.692 36.9063 140.794 36.2353C140.931 35.5338 141 34.8322 141 34.1307C141 33.7952 141 33.4902 141 33.1547C141 32.7887 141 32.3922 141 31.9956V10.0044C141 9.60784 141 9.24183 141 8.84532C141 8.5098 141 8.20479 141 7.86928C141 7.16776 140.897 6.46623 140.794 5.76471C140.657 5.06318 140.417 4.39216 140.075 3.78214C139.355 2.53159 138.19 1.49455 136.785 0.854032C136.066 0.549021 135.312 0.305013 134.524 0.183008C133.736 0.061004 132.948 0 132.16 0C131.817 0 131.44 0 131.063 0C130.618 0.0305011 130.172 0.030503 129.761 0.030503Z" fill="#A6A6A6"/>
<path id="Vector_2" d="M10.2608 40.6159C9.91959 40.6159 9.54428 40.6159 9.20307 40.6159C8.45243 40.6159 7.73591 40.5562 7.01939 40.4366C6.33699 40.347 5.68871 40.1379 5.07455 39.869C4.46039 39.6 3.91447 39.2415 3.43679 38.8232C2.95911 38.4049 2.54967 37.9268 2.24259 37.389C1.93551 36.8512 1.73079 36.2835 1.59431 35.6859C1.45783 35.0585 1.42371 34.4012 1.38959 33.7737C1.38959 33.5646 1.35547 32.8475 1.35547 32.8475V9.1239C1.35547 9.1239 1.35547 8.40681 1.38959 8.19766C1.38959 7.54033 1.45783 6.91288 1.59431 6.28543C1.69667 5.68786 1.93551 5.12017 2.24259 4.58236C2.54967 4.04454 2.95911 3.56648 3.43679 3.14818C3.91447 2.72988 4.46039 2.37134 5.07455 2.10243C5.68871 1.83353 6.33699 1.65425 7.01939 1.53474C7.73591 1.4451 8.48655 1.38535 9.20307 1.35547H10.2608H130.807H131.865C132.581 1.35547 133.332 1.41522 134.048 1.53474C134.731 1.62437 135.379 1.83353 135.993 2.10243C137.221 2.64025 138.211 3.50673 138.825 4.58236C139.132 5.12017 139.337 5.68786 139.439 6.28543C139.576 6.91288 139.644 7.57021 139.644 8.22754C139.644 8.52633 139.644 8.82511 139.644 9.15377C139.644 9.5422 139.644 9.90074 139.644 10.2892V31.742C139.644 32.1005 139.644 32.4889 139.644 32.8475C139.644 33.1761 139.644 33.4749 139.644 33.8036C139.644 34.431 139.576 35.0884 139.439 35.7158C139.337 36.3134 139.132 36.8811 138.791 37.4189C138.484 37.9567 138.074 38.4348 137.597 38.8531C137.119 39.2714 136.573 39.6299 135.959 39.8988C135.345 40.1677 134.697 40.3769 134.014 40.4665C133.298 40.5562 132.547 40.6159 131.83 40.6458C131.489 40.6458 131.114 40.6458 130.773 40.6458H129.51L10.2608 40.6159Z" fill="black"/>
</g>
</g>
<g id="Group 5339">
<g id="_Group_">
<g id="_Group_2">
<g id="_Group_3">
<path id="_Path_" d="M34.2039 21.314C34.2338 19.5488 35.1322 17.9053 36.6294 16.9618C35.7011 15.5923 34.1739 14.7705 32.5269 14.7097C30.7901 14.527 29.1132 15.7749 28.2447 15.7749C27.3464 15.7749 25.9988 14.7401 24.5315 14.7705C22.615 14.8314 20.8482 15.927 19.9199 17.6314C17.9435 21.1314 19.4108 26.2749 21.3274 29.1053C22.2856 30.5053 23.3936 32.0271 24.8609 31.9966C26.2983 31.9357 26.8074 31.0836 28.5442 31.0836C30.2511 31.0836 30.7601 31.9966 32.2275 31.9662C33.7547 31.9357 34.7129 30.5662 35.6412 29.1662C36.33 28.1923 36.869 27.0966 37.1984 25.9401C35.3717 25.1488 34.2039 23.3227 34.2039 21.314Z" fill="white"/>
<path id="_Path_2" d="M31.3906 12.8494C32.2291 11.8451 32.6483 10.506 32.5285 9.19727C31.2408 9.319 30.073 9.95813 29.2345 10.932C28.396 11.906 27.9768 13.1538 28.0666 14.4625C29.3543 14.4625 30.5821 13.8842 31.3906 12.8494Z" fill="white"/>
</g>
</g>
<g id="Group_4">
<path id="Vector_3" d="M52.2285 28.4624H47.3474L46.1795 31.9624H44.1133L48.7249 18.9668H50.8809L55.4925 31.9624H53.3964L52.2285 28.4624ZM47.8864 26.8494H51.7494L49.8328 21.1581H49.773L47.8864 26.8494Z" fill="white"/>
<path id="Vector_4" d="M65.4654 27.2472C65.4654 30.1994 63.9082 32.0864 61.5725 32.0864C60.3747 32.1472 59.2368 31.5081 58.6379 30.4429H58.6079V35.1298H56.6914V22.5298H58.548V24.1125H58.578C59.1769 23.0472 60.3148 22.4081 61.5426 22.4385C63.9082 22.4081 65.4654 24.3255 65.4654 27.2472ZM63.519 27.2472C63.519 25.3298 62.5308 24.082 61.0634 24.082C59.5961 24.082 58.6079 25.3603 58.6079 27.2472C58.6079 29.1646 59.5961 30.4429 61.0634 30.4429C62.5308 30.4429 63.519 29.1951 63.519 27.2472Z" fill="white"/>
<path id="Vector_5" d="M75.7349 27.2472C75.7349 30.1994 74.1778 32.0864 71.842 32.0864C70.6442 32.1472 69.5063 31.5081 68.9074 30.4429H68.8774V35.1298H66.9609V22.5298H68.8176V24.1125H68.8475C69.4464 23.0472 70.5843 22.4081 71.8121 22.4385C74.1778 22.4081 75.7349 24.3255 75.7349 27.2472ZM73.7585 27.2472C73.7585 25.3298 72.7703 24.082 71.303 24.082C69.8357 24.082 68.8475 25.3603 68.8475 27.2472C68.8475 29.1646 69.8357 30.4429 71.303 30.4429C72.8003 30.4429 73.7585 29.1951 73.7585 27.2472Z" fill="white"/>
<path id="Vector_6" d="M82.4998 28.3741C82.6496 29.6523 83.8773 30.5045 85.5543 30.5045C87.1713 30.5045 88.3392 29.6523 88.3392 28.4958C88.3392 27.4915 87.6504 26.8828 85.9735 26.4567L84.3265 26.061C81.9908 25.4828 80.8828 24.3567 80.8828 22.561C80.8828 20.3089 82.7993 18.7871 85.5243 18.7871C88.2194 18.7871 90.076 20.3393 90.1359 22.561H88.2194C88.0996 21.2523 87.0515 20.4915 85.4944 20.4915C83.9671 20.4915 82.8891 21.2828 82.8891 22.4393C82.8891 23.3523 83.5479 23.9002 85.2249 24.3262L86.6323 24.6915C89.2675 25.3306 90.3455 26.3958 90.3455 28.2828C90.3455 30.7175 88.429 32.2393 85.4045 32.2393C82.5597 32.2393 80.6432 30.748 80.5234 28.4045L82.4998 28.3741Z" fill="white"/>
<path id="Vector_7" d="M94.4828 20.2793V22.5315H96.2496V24.0836H94.4828V29.3184C94.4828 30.1402 94.8421 30.5054 95.6207 30.5054C95.8303 30.5054 96.04 30.4749 96.2496 30.4749V31.9967C95.8902 32.0576 95.5309 32.088 95.2015 32.088C93.3149 32.088 92.5663 31.3576 92.5663 29.5315V24.0532H91.2188V22.5315H92.5663V20.2793H94.4828Z" fill="white"/>
<path id="Vector_8" d="M97.2969 27.2454C97.2969 24.2628 99.0337 22.4062 101.729 22.4062C104.424 22.4062 106.161 24.2932 106.161 27.2454C106.161 30.228 104.454 32.0845 101.729 32.0845C99.0038 32.1149 97.2969 30.228 97.2969 27.2454ZM104.184 27.2454C104.184 25.2062 103.256 23.9889 101.699 23.9889C100.142 23.9889 99.2134 25.2062 99.2134 27.2454C99.2134 29.2845 100.142 30.5019 101.699 30.5019C103.256 30.5019 104.184 29.3149 104.184 27.2454Z" fill="white"/>
<path id="Vector_9" d="M107.719 22.5323H109.545V24.1454H109.575C109.815 23.1106 110.773 22.3802 111.821 22.441C112.031 22.441 112.27 22.4715 112.48 22.5019V24.328C112.211 24.2367 111.911 24.2063 111.612 24.2063C110.534 24.1758 109.665 24.9976 109.605 26.0932C109.605 26.1845 109.605 26.3063 109.605 26.3976V32.028H107.719V22.5323Z" fill="white"/>
<path id="Vector_10" d="M121.282 29.1924C121.012 30.8967 119.365 32.0837 117.269 32.0837C114.544 32.0837 112.867 30.2272 112.867 27.275C112.867 24.2924 114.544 22.375 117.179 22.375C119.755 22.375 121.372 24.1707 121.372 27.062V27.7315H114.784V27.8533C114.664 29.2228 115.652 30.4098 117 30.5315C117.089 30.5315 117.209 30.5315 117.299 30.5315C118.227 30.6228 119.096 30.075 119.455 29.1924H121.282ZM114.814 26.3924H119.485C119.545 25.1446 118.617 24.0489 117.359 23.988C117.299 23.988 117.239 23.988 117.179 23.988C115.892 23.9576 114.844 25.0228 114.814 26.3924C114.814 26.362 114.814 26.362 114.814 26.3924Z" fill="white"/>
</g>
</g>
<g id="_Group_4">
<g id="Group_5">
<path id="Vector_11" d="M47.6496 9.22755C49.1468 9.10581 50.4345 10.2623 50.5543 11.7841C50.5543 11.9667 50.5543 12.1493 50.5543 12.3319C50.5543 14.3406 49.5062 15.4667 47.6496 15.4667H45.4336V9.22755H47.6496ZM46.3619 14.5841H47.5298C48.6078 14.6449 49.5062 13.8232 49.5661 12.7275C49.5661 12.6058 49.5661 12.4536 49.5361 12.3319C49.6858 11.2667 48.9372 10.2623 47.8891 10.1102C47.7693 10.0797 47.6496 10.0797 47.5298 10.0797H46.3619V14.5841Z" fill="white"/>
<path id="Vector_12" d="M51.6045 13.0941C51.4847 11.8767 52.383 10.7811 53.5809 10.6593C54.7787 10.5376 55.8567 11.4506 55.9765 12.668C55.9765 12.8202 55.9765 12.9419 55.9765 13.0941C56.0963 14.3115 55.1979 15.4072 54.0001 15.5289C52.8023 15.6506 51.7243 14.7376 51.6045 13.5202C51.6045 13.3985 51.6045 13.2463 51.6045 13.0941ZM55.0482 13.0941C55.0482 12.0593 54.599 11.4811 53.7905 11.4811C52.982 11.4811 52.5627 12.0898 52.5627 13.0941C52.5627 14.1289 53.0119 14.7072 53.7905 14.7072C54.599 14.7376 55.0482 14.1289 55.0482 13.0941Z" fill="white"/>
<path id="Vector_13" d="M61.7834 15.4713H60.8252L59.8669 12.0017H59.807L58.8488 15.4713H57.9205L56.6328 10.7539H57.5611L58.3996 14.3452H58.4595L59.4177 10.7539H60.2862L61.2444 14.3452H61.3043L62.1428 10.7539H63.0711L61.7834 15.4713Z" fill="white"/>
<path id="Vector_14" d="M64.1198 10.7438H64.9882V11.5046H65.0481C65.2877 10.9568 65.8267 10.622 66.4256 10.6525C67.2641 10.5916 67.9827 11.2307 68.0426 12.0525C68.0426 12.1742 68.0426 12.2655 68.0426 12.3872V15.4307H67.1143V12.6003C67.1143 11.8394 66.7849 11.4742 66.1261 11.4742C65.5272 11.4438 65.0481 11.9003 65.0182 12.509C65.0182 12.5698 65.0182 12.6307 65.0182 12.6611V15.4307H64.0898L64.1198 10.7438Z" fill="white"/>
<path id="Vector_15" d="M69.5391 8.92188H70.4674V15.4654H69.5391V8.92188Z" fill="white"/>
<path id="Vector_16" d="M71.7256 13.0941C71.6058 11.8767 72.5042 10.7811 73.702 10.6593C74.8998 10.5376 75.9778 11.4506 76.0976 12.668C76.0976 12.8202 76.0976 12.9419 76.0976 13.0941C76.2174 14.3115 75.319 15.4072 74.1212 15.5289C72.9234 15.6506 71.8454 14.7376 71.7256 13.5202C71.6956 13.3985 71.6956 13.2463 71.7256 13.0941ZM75.1394 13.0941C75.1394 12.0593 74.6902 11.4811 73.8817 11.4811C73.0731 11.4811 72.6539 12.0898 72.6539 13.0941C72.6539 14.1289 73.1031 14.7072 73.8817 14.7072C74.6902 14.7376 75.1394 14.1289 75.1394 13.0941Z" fill="white"/>
<path id="Vector_17" d="M77.0547 14.1278C77.0547 13.2756 77.6835 12.7886 78.7915 12.7278L80.0492 12.6669V12.2712C80.0492 11.7843 79.7198 11.4799 79.091 11.4799C78.5819 11.4799 78.2226 11.6625 78.1327 11.9973H77.2344C77.3242 11.1756 78.0728 10.6582 79.1209 10.6582C80.2888 10.6582 80.9476 11.2365 80.9476 12.2408V15.4669H80.0792V14.7973H80.0193C79.7198 15.2843 79.1808 15.5582 78.6418 15.5278C77.8632 15.6191 77.1745 15.0408 77.1146 14.2495C77.0547 14.2191 77.0547 14.1886 77.0547 14.1278ZM80.0193 13.7321V13.3365L78.8814 13.3973C78.2525 13.4278 77.953 13.6712 77.953 14.0669C77.953 14.493 78.3124 14.7365 78.8215 14.7365C79.4204 14.7973 79.9594 14.3408 80.0193 13.7321Z" fill="white"/>
<path id="Vector_18" d="M82.1484 13.0906C82.1484 11.5993 82.8971 10.6558 84.0649 10.6558C84.6638 10.6254 85.2029 10.9602 85.4724 11.4776H85.5323V8.89062H86.4606V15.4341H85.5922V14.7037H85.5323C85.2328 15.2211 84.6638 15.5558 84.0649 15.5254C82.8971 15.5254 82.1484 14.5819 82.1484 13.0906ZM83.0767 13.0906C83.0767 14.095 83.5259 14.7037 84.3045 14.7037C85.0831 14.7037 85.5622 14.095 85.5622 13.1211C85.5622 12.1471 85.0831 11.508 84.3045 11.508C83.5559 11.508 83.0767 12.1167 83.0767 13.0906Z" fill="white"/>
<path id="Vector_19" d="M90.2607 13.0941C90.141 11.8767 91.0393 10.7811 92.2371 10.6593C93.4349 10.5376 94.513 11.4506 94.6328 12.668C94.6328 12.8202 94.6328 12.9419 94.6328 13.0941C94.7525 14.3115 93.8542 15.4072 92.6564 15.5289C91.4586 15.6506 90.3805 14.7376 90.2607 13.5202C90.2308 13.3985 90.2308 13.2463 90.2607 13.0941ZM93.6745 13.0941C93.6745 12.0593 93.2253 11.4811 92.4168 11.4811C91.6083 11.4811 91.189 12.0898 91.189 13.0941C91.189 14.1289 91.6382 14.7072 92.4168 14.7072C93.2253 14.7376 93.6745 14.1289 93.6745 13.0941Z" fill="white"/>
<path id="Vector_20" d="M95.862 10.7438H96.7304V11.5046H96.7903C97.0299 10.9568 97.5689 10.622 98.1678 10.6525C99.0062 10.5916 99.7249 11.2307 99.7848 12.0525C99.7848 12.1742 99.7848 12.2655 99.7848 12.3872V15.4307H98.8565V12.6003C98.8565 11.8394 98.5271 11.4742 97.8683 11.4742C97.2694 11.4438 96.7903 11.9003 96.7603 12.509C96.7603 12.5698 96.7603 12.6307 96.7603 12.6611V15.4307H95.832V10.7438H95.862Z" fill="white"/>
<path id="Vector_21" d="M104.967 9.55859V10.7456H105.985V11.5369H104.967V13.9716C104.967 14.4586 105.177 14.6716 105.626 14.6716C105.746 14.6716 105.866 14.6716 105.985 14.6412V15.4021C105.836 15.4325 105.656 15.4629 105.476 15.4629C104.458 15.4629 104.069 15.0977 104.069 14.1847V11.5369H103.32V10.7456H104.069V9.55859H104.967Z" fill="white"/>
<path id="Vector_22" d="M107.21 8.92188H108.108V11.5088H108.168C108.407 10.961 108.976 10.6262 109.575 10.6567C110.414 10.5958 111.132 11.2654 111.192 12.1175C111.192 12.2088 111.192 12.3001 111.192 12.4219V15.4654H110.264V12.6654C110.264 11.9045 109.905 11.5393 109.276 11.5393C108.677 11.4784 108.168 11.9349 108.108 12.5436C108.108 12.6045 108.108 12.6654 108.108 12.7262V15.4654H107.18L107.21 8.92188Z" fill="white"/>
<path id="Vector_23" d="M116.522 14.1914C116.252 15.074 115.414 15.6523 114.515 15.561C113.348 15.5914 112.389 14.6479 112.359 13.4914C112.359 13.3697 112.359 13.2479 112.389 13.1566C112.24 11.9697 113.048 10.874 114.216 10.7218C114.306 10.7218 114.426 10.6914 114.515 10.6914C115.803 10.6914 116.582 11.574 116.582 13.0653V13.4001H113.318V13.461C113.258 14.161 113.767 14.7392 114.426 14.8001C114.456 14.8001 114.515 14.8001 114.545 14.8001C114.995 14.861 115.414 14.6175 115.653 14.2218L116.522 14.1914ZM113.318 12.6697H115.653C115.713 12.0305 115.234 11.5131 114.635 11.4523C114.605 11.4523 114.575 11.4523 114.515 11.4523C113.857 11.4523 113.318 11.9697 113.318 12.6392V12.6697Z" fill="white"/>
</g>
</g>
</g>
</g>
</g>
<defs>
<clipPath id="clip0_1_106002">
<rect width="141" height="42" fill="white"/>
</clipPath>
</defs>
</svg>
