<svg width="39" height="16" viewBox="0 0 39 16" fill="none" xmlns="http://www.w3.org/2000/svg">
<path fill-rule="evenodd" clip-rule="evenodd" d="M7.12166 2.0628C6.66457 2.60324 5.93323 3.0295 5.20188 2.96861C5.11047 2.23788 5.46852 1.46147 5.88752 0.981925C6.34461 0.426262 7.14452 0.0304473 7.79206 0C7.86825 0.761182 7.57114 1.50714 7.12166 2.0628ZM7.78893 3.1132C7.14463 3.07615 6.55673 3.3068 6.08187 3.49311C5.77629 3.61301 5.51751 3.71453 5.32064 3.71453C5.09971 3.71453 4.83026 3.60758 4.52772 3.48749C4.13129 3.33014 3.67807 3.15024 3.20279 3.15887C2.11339 3.17409 1.10017 3.79065 0.544041 4.77258C-0.598687 6.73642 0.246932 9.64414 1.35157 11.2426C1.89246 12.0342 2.54 12.902 3.39324 12.8715C3.76861 12.8574 4.03864 12.7429 4.31808 12.6244C4.6398 12.488 4.97401 12.3463 5.49586 12.3463C5.99962 12.3463 6.31921 12.4843 6.626 12.6168C6.91771 12.7428 7.19785 12.8637 7.61372 12.8563C8.49742 12.8411 9.05355 12.0647 9.59444 11.2731C10.1781 10.4234 10.4347 9.59425 10.4736 9.4684L10.4782 9.45384C10.4772 9.45291 10.47 9.44961 10.4573 9.44379C10.2622 9.35454 8.77075 8.67234 8.75644 6.84299C8.74208 5.30751 9.93939 4.52955 10.1279 4.40708L10.1279 4.40707C10.1393 4.39963 10.1471 4.3946 10.1506 4.39199C9.38875 3.26544 8.20032 3.14365 7.78893 3.1132ZM13.9062 12.7726V0.905762H18.3629C20.6636 0.905762 22.271 2.48902 22.271 4.80301C22.271 7.11701 20.6331 8.71549 18.3019 8.71549H15.7499V12.7726H13.9062ZM15.75 2.4585H17.8755C19.4753 2.4585 20.3895 3.31102 20.3895 4.81055C20.3895 6.31007 19.4753 7.17021 17.8679 7.17021H15.75V2.4585ZM28.3564 11.3491C27.8688 12.2777 26.7947 12.8638 25.6367 12.8638C23.9226 12.8638 22.7266 11.8438 22.7266 10.3062C22.7266 8.78387 23.8845 7.90851 26.0252 7.77911L28.3259 7.64209V6.98748C28.3259 6.02078 27.6936 5.49556 26.5661 5.49556C25.6367 5.49556 24.9587 5.97511 24.8216 6.70584H23.1608C23.2141 5.16825 24.6616 4.04932 26.6195 4.04932C28.7297 4.04932 30.101 5.15303 30.101 6.86569V12.7725H28.3945V11.3491H28.3564ZM26.1309 11.4556C25.1481 11.4556 24.5234 10.9837 24.5234 10.2606C24.5234 9.51459 25.1253 9.08072 26.2756 9.01221L28.3249 8.88281V9.55265C28.3249 10.664 27.3802 11.4556 26.1309 11.4556ZM35.7645 13.2369C35.0256 15.3149 34.1799 16 32.382 16C32.2449 16 31.7878 15.9847 31.6812 15.9543V14.5309C31.7954 14.5461 32.0773 14.5613 32.2221 14.5613C33.0372 14.5613 33.4943 14.2188 33.7762 13.3282L33.9438 12.803L30.8203 4.16357H32.7477L34.9189 11.1741H34.957L37.1282 4.16357H39.0022L35.7645 13.2369Z" fill="currentColor"/>
</svg>
