<svg width="26" height="27" viewBox="0 0 26 27" fill="none" xmlns="http://www.w3.org/2000/svg">
<path fill-rule="evenodd" clip-rule="evenodd" d="M20.5352 0C20.9954 0 21.3686 0.3731 21.3686 0.833333V1.67658L22.2356 2.55397L23.1087 3.4375H23.9317C24.3921 3.4375 24.7651 3.8106 24.7651 4.27083C24.7651 4.73107 24.3921 5.10417 23.9317 5.10417H23.1151L22.2291 6.00072L21.3686 6.87152V7.71585C21.3686 8.17608 20.9954 8.54918 20.5352 8.54918C20.0749 8.54918 19.7019 8.17608 19.7019 7.71585V6.88468L18.8282 6.00072L17.9422 5.10417H17.1302C16.6699 5.10417 16.2969 4.73107 16.2969 4.27083C16.2969 3.8106 16.6699 3.4375 17.1302 3.4375H17.9616L18.8347 2.55397L19.7019 1.67658V0.833333C19.7019 0.3731 20.0749 0 20.5352 0ZM11.2782 1.86867C11.6557 2.39087 11.5382 3.12018 11.0161 3.49762L8.15606 5.56478C7.23723 6.22895 6.13223 6.58647 4.99856 6.58647C3.8934 6.58647 2.9974 7.48238 2.9974 8.58755V20.4938C2.9974 22.6108 4.71356 24.3272 6.83073 24.3272H19.5026C21.6197 24.3272 23.3359 22.6108 23.3359 20.4938V12.3023C23.3359 11.658 23.8582 11.1356 24.5026 11.1356C25.1469 11.1356 25.6692 11.658 25.6692 12.3023V20.4938C25.6692 23.8995 22.9082 26.6605 19.5026 26.6605H6.83073C3.4249 26.6605 0.664062 23.8995 0.664062 20.4938V8.58755C0.664062 6.19372 2.60473 4.25313 4.99856 4.25313C5.64156 4.25313 6.26806 4.05038 6.78923 3.67372L9.64923 1.60655C10.1714 1.2291 10.9007 1.34645 11.2782 1.86867ZM13.1689 16.8577C14.6716 16.8577 15.9367 15.6173 15.9367 14.029C15.9367 12.4408 14.6716 11.2005 13.1689 11.2005C11.6662 11.2005 10.4011 12.4408 10.4011 14.029C10.4011 15.6173 11.6662 16.8577 13.1689 16.8577ZM13.1689 19.191C15.9862 19.191 18.2701 16.8798 18.2701 14.029C18.2701 11.1783 15.9862 8.86718 13.1689 8.86718C10.3516 8.86718 8.06773 11.1783 8.06773 14.029C8.06773 16.8798 10.3516 19.191 13.1689 19.191Z" fill="#333333"/>
</svg>
