<svg width="159" height="22" viewBox="0 0 159 22" fill="none" xmlns="http://www.w3.org/2000/svg">
<path d="M14.5128 6.33226L10.7194 15.6938H8.2444L6.37789 8.2218C6.2644 7.76221 6.16661 7.59362 5.82132 7.40004C5.25871 7.08408 4.32907 6.78809 3.51172 6.60326L3.56726 6.33226H7.5514C7.81176 6.33199 8.06363 6.428 8.26156 6.60297C8.45948 6.77793 8.59042 7.02033 8.63074 7.28639L9.61712 12.704L12.0535 6.33226H14.5128ZM24.2112 12.6378C24.2208 10.1663 20.9079 10.0302 20.9309 8.92616C20.9381 8.59022 21.2472 8.23304 21.9233 8.14187C22.7157 8.06403 23.5136 8.20901 24.2329 8.56149L24.6434 6.57579C23.9431 6.30346 23.2014 6.16263 22.4533 6.15991C20.1389 6.15991 18.5102 7.43376 18.4957 9.25586C18.4812 10.6034 19.6584 11.354 20.5458 11.8036C21.4585 12.2619 21.7651 12.5566 21.7603 12.9663C21.7543 13.5957 21.0335 13.8717 20.3598 13.8829C19.1827 13.9017 18.5006 13.5545 17.9549 13.2922L17.5311 15.3429C18.078 15.6026 19.0873 15.8299 20.1341 15.8399C22.5934 15.8399 24.2027 14.5835 24.2112 12.6378ZM30.3214 15.6938H32.4873L30.5979 6.33226H28.5986C28.3849 6.33021 28.1756 6.3946 27.9978 6.51708C27.82 6.63955 27.6819 6.81447 27.6013 7.01914L24.0892 15.6938H26.5473L27.0363 14.2951H30.0401L30.3214 15.6938ZM27.71 12.3768L28.9414 8.86122L29.6513 12.3768H27.71ZM17.8583 6.33226L15.9229 15.6938H13.5807L15.5185 6.33226H17.8583Z" fill="#5165D7"/>
<rect x="0.5" y="0.5" width="35" height="21" rx="1.5" stroke="#F6F6F6"/>
<path d="M55.7969 5.11963H62.2069V16.8798H55.7969V5.11963Z" fill="#FFA570"/>
<path d="M56.204 11C56.204 8.61061 57.3028 6.49123 58.9918 5.11987C57.7506 4.12255 56.1837 3.52002 54.4743 3.52002C50.4247 3.52002 47.1484 6.86519 47.1484 11C47.1484 15.1348 50.4247 18.48 54.4743 18.48C56.1836 18.48 57.7505 17.8775 58.9918 16.8801C57.3028 15.5295 56.204 13.3894 56.204 11Z" fill="#F4707F"/>
<path d="M70.8551 11C70.8551 15.1348 67.5788 18.48 63.5293 18.48C61.8199 18.48 60.253 17.8775 59.0117 16.8801C60.7211 15.5088 61.7996 13.3894 61.7996 11C61.7996 8.61061 60.7007 6.49123 59.0117 5.11987C60.2529 4.12255 61.8199 3.52002 63.5293 3.52002C67.5788 3.52002 70.8551 6.88601 70.8551 11Z" fill="#FBC87F"/>
<rect x="41.5" y="0.5" width="35" height="21" rx="1.5" stroke="#F6F6F6"/>
<path d="M92.5352 3.52002H107.462V18.48H92.5352V3.52002Z" fill="white"/>
<path d="M92.5352 3.52002V18.48H107.462V16.1163H105.402L104.641 15.2238L103.85 16.1163H97.9984V11.3641H96.0677L98.4811 5.88878H100.829L101.397 7.13046V5.88878H104.312L104.8 7.1903L105.278 5.88878H107.462V3.52002H92.5352ZM105.775 6.66162L105.009 8.6863L104.805 9.23503L104.596 8.6863L103.825 6.66162H102.138V10.6511H103.153V8.05319L103.148 7.5293L103.347 8.05319L104.317 10.6511H105.283L106.258 8.05319L106.447 7.53438V10.6511H107.462V6.66162H105.775ZM99.0283 6.66162L97.267 10.6511H98.4211L98.7298 9.8831H100.66L100.969 10.6511H102.138L100.387 6.66162H99.0283ZM99.4958 8.0131L99.695 7.51463L99.8941 8.0131L100.307 9.02022H99.083L99.4958 8.0131ZM105.855 11.3692L104.656 12.6606L103.462 11.3692H98.8143V15.3435H102.138V14.481H99.8293V13.7877H102.093V12.9302H99.8293V12.2318H102.138V11.3693L103.994 13.3637L102.138 15.3435H103.422L104.631 14.0471L105.835 15.3435H107.153L105.293 13.3487L107.153 11.3692H105.855ZM106.337 13.3439L107.462 14.4908V12.2118L106.337 13.3439Z" fill="#4093DB"/>
<rect x="82.5" y="0.5" width="35" height="21" rx="1.5" stroke="#F6F6F6"/>
<path d="M141.887 13.1585C143.229 13.1585 144.317 12.1921 144.317 11C144.317 9.80794 143.229 8.84155 141.887 8.84155C140.545 8.84155 139.457 9.80794 139.457 11C139.457 12.1921 140.545 13.1585 141.887 13.1585Z" fill="#FBDEBD"/>
<path d="M139.457 11C139.457 9.79627 140.532 8.84155 141.887 8.84155C143.243 8.84155 144.317 9.79627 144.317 11C144.317 12.2038 143.243 13.1585 141.887 13.1585" fill="#F9BD8F"/>
<path d="M140.207 9.46419C141.142 8.63401 142.684 8.63401 143.619 9.46419C144.553 10.2944 144.553 11.6642 143.619 12.4944" fill="#F89A64"/>
<path d="M127.82 8.96606H126.512V13.034H127.82C128.521 13.034 129.035 12.868 129.456 12.5774C129.97 12.2038 130.297 11.6227 130.297 11C130.297 9.79625 129.316 8.96606 127.82 8.96606ZM128.895 12.0378C128.615 12.2453 128.241 12.3698 127.68 12.3698H127.4V9.67173H127.633C128.194 9.67173 128.568 9.75474 128.848 10.0038C129.176 10.2529 129.363 10.6264 129.363 11C129.409 11.3736 129.222 11.7887 128.895 12.0378Z" fill="#333333"/>
<path d="M131.607 8.96606H130.719V13.034H131.607V8.96606Z" fill="#333333"/>
<path d="M133.85 10.5432C133.289 10.3771 133.149 10.2526 133.149 10.0451C133.149 9.79601 133.429 9.58847 133.803 9.58847C134.084 9.58847 134.317 9.67149 134.551 9.92054L135.018 9.38092C134.644 9.09035 134.177 8.92432 133.663 8.92432C132.868 8.92432 132.214 9.42243 132.214 10.0866C132.214 10.6677 132.495 10.9168 133.336 11.2073C133.71 11.3319 133.85 11.3734 133.943 11.4564C134.13 11.5394 134.224 11.7054 134.224 11.8715C134.224 12.2036 133.943 12.4526 133.523 12.4526C133.102 12.4526 132.728 12.2451 132.541 11.913L131.98 12.4111C132.401 12.9507 132.915 13.1998 133.569 13.1998C134.504 13.1998 135.158 12.6602 135.158 11.8715C135.158 11.1658 134.878 10.8753 133.85 10.5432Z" fill="#333333"/>
<path d="M135.438 11C135.438 12.2038 136.512 13.117 137.868 13.117C138.242 13.117 138.569 13.034 138.989 12.868V11.9133C138.615 12.2453 138.288 12.3699 137.914 12.3699C137.026 12.3699 136.372 11.7887 136.372 10.9585C136.372 10.1699 137.026 9.54722 137.868 9.54722C138.288 9.54722 138.615 9.67175 138.989 10.0038V9.04911C138.615 8.88307 138.288 8.80005 137.868 8.80005C136.559 8.88307 135.438 9.83778 135.438 11Z" fill="#404040"/>
<path d="M146.329 11.7057L145.114 8.96606H144.133L146.049 13.1585H146.563L148.573 8.96606H147.591L146.329 11.7057Z" fill="#404040"/>
<path d="M148.945 13.034H151.516V12.3698H149.88V11.2491H151.469V10.5434H149.88V9.67173H151.516V8.96606H148.945V13.034Z" fill="#404040"/>
<path d="M154.041 11.3321C154.742 11.2076 155.116 10.7925 155.116 10.1698C155.116 9.42267 154.508 8.96606 153.48 8.96606H152.125V13.034H153.013V11.4151H153.153L154.415 13.034H155.49L154.041 11.3321ZM153.293 10.834H153.013V9.58871H153.293C153.854 9.58871 154.181 9.79625 154.181 10.2113C154.181 10.6264 153.854 10.834 153.293 10.834Z" fill="#333333"/>
<path d="M127.82 8.96606H126.512V13.034H127.82C128.521 13.034 129.035 12.868 129.456 12.5774C129.97 12.2038 130.297 11.6227 130.297 11C130.297 9.79625 129.316 8.96606 127.82 8.96606ZM128.895 12.0378C128.615 12.2453 128.241 12.3698 127.68 12.3698H127.4V9.67173H127.633C128.194 9.67173 128.568 9.75474 128.848 10.0038C129.176 10.2529 129.363 10.6264 129.363 11C129.409 11.3736 129.222 11.7887 128.895 12.0378Z" fill="#666666"/>
<path d="M131.607 8.96606H130.719V13.034H131.607V8.96606Z" fill="#666666"/>
<path d="M133.85 10.5434C133.289 10.3774 133.149 10.2529 133.149 10.0453C133.149 9.79626 133.429 9.58871 133.803 9.58871C134.084 9.58871 134.317 9.67173 134.551 9.92079L135.018 9.38116C134.644 9.0906 134.177 8.92456 133.663 8.92456C132.868 8.92456 132.214 9.42267 132.214 10.0868C132.214 10.668 132.495 10.917 133.336 11.2076C133.71 11.3321 133.85 11.3736 133.943 11.4566C134.13 11.5397 134.224 11.7057 134.224 11.8717C134.224 12.2038 133.943 12.4529 133.523 12.4529C133.102 12.4529 132.728 12.2453 132.541 11.9132L131.98 12.4114C132.401 12.951 132.915 13.2 133.569 13.2C134.504 13.2 135.158 12.6604 135.158 11.8717C135.158 11.1661 134.878 10.8755 133.85 10.5434Z" fill="#666666"/>
<path d="M137.916 13.1172C138.29 13.1172 138.617 13.0342 139.038 12.8681V11.9134C138.664 12.2455 138.337 12.37 137.963 12.37C137.075 12.37 136.421 11.7889 136.421 10.9587C136.421 10.5436 136.607 10.2115 136.888 9.92097L136.28 9.38135C135.813 9.75493 135.486 10.3361 135.486 10.9587C135.439 12.204 136.514 13.1172 137.916 13.1172Z" fill="#666666"/>
<path d="M154.041 11.3321C154.742 11.2076 155.116 10.7925 155.116 10.1698C155.116 9.42267 154.508 8.96606 153.48 8.96606H152.125V13.034H153.013V11.4151H153.153L154.415 13.034H155.49L154.041 11.3321ZM153.293 10.834H153.013V9.58871H153.293C153.854 9.58871 154.181 9.79625 154.181 10.2113C154.181 10.6264 153.854 10.834 153.293 10.834Z" fill="#404040"/>
<path d="M150.721 12.3698H149.88V11.6227L148.945 10.7925V13.034H151.469L150.721 12.3698Z" fill="#666666"/>
<path d="M147.358 9.38116L146.329 11.7057L145.114 8.96606H144.133L146.049 13.1585H146.563L148.059 10.0038L147.358 9.38116Z" fill="#666666"/>
<rect x="123.5" y="0.5" width="35" height="21" rx="1.5" stroke="#F6F6F6"/>
</svg>
