<svg width="18" height="18" viewBox="0 0 18 18" fill="none" xmlns="http://www.w3.org/2000/svg">
<circle cx="9" cy="9" r="9" fill="#51C96D"/>
<path d="M7.28417 11.9638L5.40748 9.70929C5.35841 9.64962 5.29996 9.60224 5.23553 9.56991C5.1711 9.53757 5.10197 9.52092 5.03214 9.52092C4.96232 9.52092 4.89318 9.53757 4.82876 9.56991C4.76433 9.60224 4.70588 9.64962 4.65681 9.70929C4.60713 9.76825 4.56769 9.83846 4.54078 9.91586C4.51386 9.99326 4.5 10.0763 4.5 10.1602C4.5 10.2441 4.51386 10.3271 4.54078 10.4045C4.56769 10.4819 4.60713 10.5521 4.65681 10.6111L6.90347 13.31C7.11259 13.5612 7.45039 13.5612 7.65951 13.31L13.3432 6.4886C13.3929 6.42965 13.4323 6.35944 13.4592 6.28204C13.4861 6.20464 13.5 6.12159 13.5 6.03771C13.5 5.95382 13.4861 5.87077 13.4592 5.79337C13.4323 5.71597 13.3929 5.64576 13.3432 5.58681C13.2941 5.52714 13.2357 5.47976 13.1712 5.44742C13.1068 5.41509 13.0377 5.39844 12.9679 5.39844C12.898 5.39844 12.8289 5.41509 12.7645 5.44742C12.7 5.47976 12.6416 5.52714 12.5925 5.58681L7.28417 11.9638Z" fill="white"/>
</svg>
