<svg width="20" height="20" viewBox="0 0 20 20" fill="none" xmlns="http://www.w3.org/2000/svg">
<circle cx="10" cy="10" r="10" fill="white"/>
<path d="M8.09352 13.2948L6.00831 10.7898C5.95379 10.7235 5.88885 10.6709 5.81726 10.635C5.74567 10.599 5.66885 10.5805 5.59127 10.5805C5.51369 10.5805 5.43687 10.599 5.36528 10.635C5.29369 10.6709 5.22875 10.7235 5.17423 10.7898C5.11904 10.8553 5.07522 10.9334 5.04531 11.0194C5.0154 11.1054 5 11.1976 5 11.2908C5 11.384 5.0154 11.4763 5.04531 11.5623C5.07522 11.6483 5.11904 11.7263 5.17423 11.7918L7.67052 14.7907C7.90287 15.0698 8.27821 15.0698 8.51056 14.7907L14.8258 7.21129C14.881 7.14579 14.9248 7.06778 14.9547 6.98178C14.9846 6.89578 15 6.8035 15 6.7103C15 6.61709 14.9846 6.52482 14.9547 6.43882C14.9248 6.35282 14.881 6.27481 14.8258 6.2093C14.7712 6.143 14.7063 6.09036 14.6347 6.05443C14.5631 6.0185 14.4863 6 14.4087 6C14.3311 6 14.2543 6.0185 14.1827 6.05443C14.1112 6.09036 14.0462 6.143 13.9917 6.2093L8.09352 13.2948Z" fill="#51C96D"/>
</svg>
