<svg width="12" height="12" viewBox="0 0 12 12" fill="none" xmlns="http://www.w3.org/2000/svg">
<path fill-rule="evenodd" clip-rule="evenodd" d="M0.260205 10.82C0.006364 11.0738 0.006364 11.4854 0.260205 11.7392C0.514046 11.9931 0.925603 11.9931 1.17944 11.7392L5.99948 6.91921L10.8195 11.7393C11.0734 11.9931 11.4849 11.9931 11.7388 11.7393C11.9926 11.4854 11.9926 11.0739 11.7388 10.82L6.91872 5.99997L11.7388 1.17993C11.9926 0.926091 11.9926 0.514534 11.7388 0.260693C11.4849 0.00685234 11.0734 0.00685218 10.8195 0.260693L5.99948 5.08074L1.17944 0.260702C0.925603 0.00686183 0.514046 0.00686183 0.260205 0.260702C0.006364 0.514543 0.006364 0.9261 0.260205 1.17994L5.08024 5.99997L0.260205 10.82Z" fill="#1C1C1C"/>
</svg>
