<svg width="24" height="24" viewBox="0 0 24 24" fill="none" xmlns="http://www.w3.org/2000/svg">
<path d="M2.18324 4.88281H18.5469C19.4506 4.88281 20.1832 5.61834 20.1832 6.52567V16.3828C20.1832 17.2901 19.4506 18.0257 18.5469 18.0257H10.3651H5.97954C5.3367 18.0257 4.71452 18.2537 4.2228 18.6693L1.8024 20.7157C1.30576 21.1356 0.546875 20.7811 0.546875 20.1293V6.52567C0.546875 5.61834 1.2795 4.88281 2.18324 4.88281Z" stroke="currentColor"/>
<path d="M4.35938 1.59375H20.1776C21.9851 1.59375 23.4503 3.06482 23.4503 4.87946V12.5461" stroke="currentColor" stroke-linecap="round"/>
<path d="M7.09162 12.5491C7.54349 12.5491 7.9098 12.1813 7.9098 11.7277C7.9098 11.274 7.54349 10.9062 7.09162 10.9062C6.63975 10.9062 6.27344 11.274 6.27344 11.7277C6.27344 12.1813 6.63975 12.5491 7.09162 12.5491Z" fill="currentColor"/>
<path d="M10.3651 12.5491C10.8169 12.5491 11.1832 12.1813 11.1832 11.7277C11.1832 11.274 10.8169 10.9062 10.3651 10.9062C9.91319 10.9062 9.54688 11.274 9.54688 11.7277C9.54688 12.1813 9.91319 12.5491 10.3651 12.5491Z" fill="currentColor"/>
<path d="M13.6385 12.5491C14.0904 12.5491 14.4567 12.1813 14.4567 11.7277C14.4567 11.274 14.0904 10.9062 13.6385 10.9062C13.1866 10.9062 12.8203 11.274 12.8203 11.7277C12.8203 12.1813 13.1866 12.5491 13.6385 12.5491Z" fill="currentColor"/>
</svg>
