<svg width="62" height="16" viewBox="0 0 62 16" fill="none" xmlns="http://www.w3.org/2000/svg">
<g clip-path="url(#clip0_138_13555)">
<path d="M61.2612 6.89151H61.1946V7.10324H61.1016V6.5666H61.3098C61.332 6.56551 61.3546 6.56901 61.3755 6.57687C61.3963 6.58469 61.4157 6.59669 61.4315 6.6121C61.4477 6.62751 61.4601 6.64601 61.4689 6.66646C61.4773 6.68692 61.4814 6.70883 61.4805 6.73087C61.4814 6.76646 61.4699 6.80124 61.4477 6.82919C61.425 6.85719 61.3935 6.87665 61.3579 6.88419L61.4805 7.10687H61.3764L61.2612 6.89151ZM61.295 6.81119C61.3065 6.81224 61.3181 6.81092 61.3292 6.80728C61.3403 6.80365 61.3505 6.79778 61.3593 6.79006C61.3681 6.78233 61.375 6.77292 61.3796 6.76242C61.3843 6.75187 61.3866 6.74051 61.3866 6.72906C61.3866 6.71756 61.3843 6.70619 61.3796 6.69569C61.375 6.68519 61.3681 6.67574 61.3593 6.66801C61.3505 6.66028 61.3403 6.65442 61.3292 6.65078C61.3181 6.64715 61.3065 6.64583 61.295 6.64692H61.1946V6.81119H61.295Z" fill="#141414"/>
<path d="M61.2766 7.37352C61.1679 7.37352 61.0615 7.34183 60.9712 7.28247C60.8805 7.22311 60.8102 7.13874 60.7686 7.04002C60.7269 6.94129 60.7158 6.83265 60.7371 6.72783C60.7584 6.62306 60.8107 6.52679 60.888 6.4512C60.9648 6.37565 61.0629 6.3242 61.1693 6.30333C61.2762 6.28252 61.3867 6.2932 61.4871 6.33411C61.588 6.37497 61.6736 6.44424 61.7342 6.53311C61.7948 6.62193 61.8272 6.72638 61.8272 6.83324C61.8272 6.90424 61.8129 6.97456 61.7856 7.0402C61.7578 7.10579 61.7171 7.16543 61.6662 7.21561C61.6148 7.26579 61.5542 7.30561 61.4876 7.3327C61.4205 7.35979 61.3493 7.3737 61.2766 7.37352ZM61.2766 6.36597C61.1818 6.36597 61.0892 6.39361 61.0106 6.44533C60.9314 6.49711 60.8699 6.57065 60.8338 6.6567C60.7973 6.74274 60.788 6.83742 60.8065 6.92879C60.825 7.02011 60.8708 7.10402 60.9379 7.16988C61.005 7.23574 61.0901 7.28061 61.1831 7.29879C61.2761 7.31692 61.3729 7.30761 61.4603 7.27197C61.5477 7.23633 61.6227 7.17597 61.6754 7.09852C61.7282 7.02111 61.7564 6.93006 61.7564 6.83692C61.756 6.71211 61.7055 6.59247 61.6158 6.50424C61.5255 6.41597 61.4038 6.36629 61.2766 6.36597Z" fill="#141414"/>
<path d="M59.1394 7.05273C58.0798 7.05273 57.6972 7.83028 57.6972 7.83028C57.6972 7.83028 57.3812 7.05273 56.292 7.05273C55.3662 7.05273 54.9535 7.81205 54.9535 7.81205V7.16592H53.8828V11.6049H55.028V8.67355C55.028 8.67355 55.3144 8.1041 55.9163 8.1041C56.4887 8.1041 56.7269 8.43264 56.7269 9.03864V11.6049H57.8716V8.67355C57.8716 8.67355 58.158 8.1041 58.76 8.1041C59.3328 8.1041 59.5706 8.43264 59.5706 9.03864V11.6049H60.7153V8.75023C60.7269 7.67696 60.0574 7.05273 59.1394 7.05273Z" fill="#141414"/>
<path d="M50.7443 6.94922C49.3988 6.94922 48.3281 7.97136 48.3281 9.2819C48.3281 10.5815 49.3988 11.6146 50.7443 11.6146C52.0902 11.6146 53.1604 10.5851 53.1604 9.2819C53.1604 7.97136 52.0902 6.94922 50.7443 6.94922ZM50.7443 10.6289C49.9304 10.6289 49.4321 10.0084 49.4321 9.2819C49.4321 8.55545 49.9341 7.93486 50.7443 7.93486C51.5549 7.93486 52.0565 8.55545 52.0565 9.2819C52.0565 10.0084 51.5586 10.6289 50.7443 10.6289Z" fill="#141414"/>
<path d="M45.26 6.94922C43.9144 6.94922 42.8438 7.97136 42.8438 9.2819C42.8438 10.5815 43.9144 11.6146 45.26 11.6146C46.6057 11.6146 47.6764 10.5851 47.6764 9.2819C47.6764 7.97136 46.6057 6.94922 45.26 6.94922ZM45.26 10.6289C44.4459 10.6289 43.9478 10.0084 43.9478 9.2819C43.9478 8.55545 44.4496 7.93486 45.26 7.93486C46.0704 7.93486 46.5724 8.55545 46.5724 9.2819C46.5724 10.0084 46.0704 10.6289 45.26 10.6289Z" fill="#141414"/>
<path d="M37.5302 4.99023V6.06713H40.7309L37.2031 11.6013H42.4929V10.5244H39.177L42.6862 4.99023H37.5302Z" fill="#141414"/>
<path d="M34.7048 7.05273C33.7494 7.05273 33.348 7.81205 33.348 7.81205V7.16592H32.2773V11.6049H33.4223V8.67355C33.4223 8.67355 33.7271 8.1041 34.3219 8.1041C34.82 8.1041 35.2215 8.37423 35.2215 9.01305V11.6049H36.3665V8.73196C36.3665 7.65873 35.5821 7.05273 34.7048 7.05273Z" fill="#141414"/>
<path d="M31.3286 7.16211H30.1836V11.6012H31.3286V7.16211Z" fill="#141414"/>
<path d="M30.7547 4.99025C30.6054 4.99025 30.4595 5.03371 30.3354 5.11514C30.2113 5.19655 30.1146 5.31232 30.0574 5.44773C30.0003 5.58314 29.9854 5.73214 30.0145 5.87586C30.0436 6.01964 30.1155 6.15168 30.221 6.25532C30.3266 6.35895 30.461 6.42955 30.6074 6.45814C30.7538 6.48673 30.9055 6.47205 31.0434 6.41595C31.1813 6.35986 31.2991 6.26486 31.3821 6.143C31.465 6.02114 31.5092 5.87786 31.5092 5.73132C31.5098 5.63382 31.4906 5.53723 31.4529 5.44709C31.4152 5.35695 31.3596 5.27505 31.2894 5.20609C31.2193 5.13718 31.1359 5.08264 31.0441 5.04559C30.9523 5.00852 30.8539 4.98971 30.7547 4.99025Z" fill="#141414"/>
<path d="M27.0803 6.94922C25.7347 6.94922 24.6641 7.97136 24.6641 9.2819C24.6641 10.5815 25.7347 11.6146 27.0803 11.6146C28.4261 11.6146 29.4966 10.5851 29.4966 9.2819C29.4966 7.97136 28.4261 6.94922 27.0803 6.94922ZM27.0803 10.6289C26.2663 10.6289 25.7681 10.0084 25.7681 9.2819C25.7681 8.55545 26.27 7.93486 27.0803 7.93486C27.8907 7.93486 28.3926 8.55545 28.3926 9.2819C28.3926 10.0084 27.8945 10.6289 27.0803 10.6289Z" fill="#141414"/>
<path fill-rule="evenodd" clip-rule="evenodd" d="M20.426 5.65082C20.9582 5.50814 21.5238 5.54541 22.0319 5.75668C22.5431 5.96959 22.9689 6.34155 23.2437 6.81536L24.1619 6.28968C23.7729 5.61559 23.1678 5.08677 22.4408 4.78566C21.717 4.48712 20.9124 4.43444 20.1546 4.63599C19.3942 4.84041 18.7238 5.28568 18.2476 5.90273C17.7682 6.52468 17.5085 7.28318 17.5078 8.06323C17.5071 8.84323 17.7655 9.60218 18.2439 10.225C18.5977 10.6866 19.0631 11.0544 19.598 11.295C20.133 11.5356 20.7206 11.6415 21.3077 11.6031C21.8947 11.5647 22.4628 11.3832 22.9605 11.075C23.4582 10.7668 23.8698 10.3417 24.1582 9.838L23.24 9.31232C22.9652 9.78609 22.5393 10.1581 22.0281 10.371C21.5201 10.5822 20.9545 10.6195 20.4222 10.4768C19.8883 10.333 19.4178 10.0199 19.084 9.58609C18.7486 9.14696 18.5673 8.61277 18.5673 8.06382C18.5673 7.51486 18.7486 6.98073 19.084 6.54155C19.42 6.10841 19.8914 5.7955 20.426 5.65082Z" fill="#141414"/>
<path d="M3.3518 3.79642V3.48613H3.35551L11.7382 5.17632V6.36273L5.66399 10.006L10.4668 10.915V8.86337H15.2251C15.2593 8.57618 15.2767 8.28732 15.2771 7.99818C15.2771 3.85848 11.8571 0.5 7.64165 0.5C4.13244 0.5 1.17714 2.82539 0.28125 5.99041H3.35551V3.79642H3.3518Z" fill="#141414"/>
<path d="M11.8844 12.675L10.5797 12.4122L10.5388 12.4048L3.50176 10.9848V9.69253L9.37519 6.17707L4.72847 5.27539V7.34521H0.0297391C0.0111522 7.56062 0 7.77966 0 8.00235C0 12.142 3.41998 15.5005 7.63549 15.5005C11.0666 15.5005 13.9699 13.2773 14.9327 10.2182H11.8844V12.675Z" fill="#141414"/>
<path d="M10.4581 8.86354V10.9151L5.65523 10.0062L11.7294 6.36295V5.17654L3.35048 3.48633H3.34677V5.99422H0.272501C0.147453 6.43599 0.0640807 6.88813 0.0234375 7.34495H4.72593V5.27508L9.3726 6.1804L3.49918 9.69586V10.9845L10.5362 12.4009L10.5771 12.4082L11.8818 12.671V10.2142H14.9301C15.0687 9.77367 15.1658 9.32154 15.22 8.86354H10.4581Z" fill="#64B32F"/>
</g>
<defs>
<clipPath id="clip0_138_13555">
<rect width="62" height="15" fill="white" transform="translate(0 0.5)"/>
</clipPath>
</defs>
</svg>
