<svg width="74" height="18" viewBox="0 0 74 18" fill="none" xmlns="http://www.w3.org/2000/svg">
<g clip-path="url(#clip0_59_13351)">
<path d="M73.3175 7.67136H73.2368V7.92543H73.125V7.28147H73.3754C73.4026 7.28021 73.4293 7.28441 73.4549 7.29379C73.48 7.30318 73.5028 7.31758 73.5223 7.33612C73.5417 7.35461 73.5568 7.37681 73.5668 7.4013C73.5768 7.42585 73.5818 7.45214 73.5812 7.47859C73.5824 7.5213 73.5679 7.56303 73.5412 7.59663C73.5145 7.63023 73.4761 7.65352 73.4338 7.66258L73.5812 7.92979H73.4561L73.3175 7.67136ZM73.3576 7.57498C73.3715 7.57628 73.3859 7.5747 73.3993 7.57034C73.4127 7.56598 73.4249 7.55894 73.4349 7.54961C73.4455 7.54034 73.4538 7.52905 73.4594 7.51645C73.465 7.50385 73.4683 7.49021 73.4683 7.47641C73.4683 7.46261 73.465 7.44898 73.4594 7.43638C73.4538 7.42378 73.4455 7.41248 73.4349 7.40321C73.4249 7.39394 73.4127 7.38685 73.3993 7.38248C73.3859 7.37812 73.3715 7.37654 73.3576 7.37785H73.2368V7.57498H73.3576Z" fill="white"/>
<path d="M73.3413 8.24981C73.2105 8.24981 73.0826 8.21179 72.9735 8.14055C72.865 8.06932 72.7799 7.96803 72.7298 7.84955C72.6797 7.73108 72.6669 7.60077 72.6925 7.47499C72.7181 7.34921 72.781 7.23368 72.8734 7.14303C72.9657 7.05237 73.0837 6.99063 73.2122 6.96559C73.3407 6.94055 73.4737 6.95343 73.5944 7.00246C73.7152 7.05155 73.8187 7.13463 73.8915 7.24126C73.9639 7.3479 74.0028 7.47324 74.0028 7.60148C74.0028 7.68663 73.9861 7.77106 73.9528 7.84977C73.9194 7.92854 73.871 8.00004 73.8092 8.06032C73.748 8.12054 73.6751 8.16826 73.5944 8.20083C73.5143 8.23334 73.4281 8.24997 73.3413 8.24981ZM73.3413 7.04075C73.2272 7.04075 73.1159 7.07386 73.0208 7.13599C72.9262 7.19806 72.8522 7.28632 72.8083 7.38957C72.7649 7.49283 72.7532 7.6065 72.7754 7.71608C72.7977 7.82572 72.8528 7.92641 72.9334 8.00544C73.0141 8.08448 73.117 8.13826 73.2289 8.16008C73.3407 8.1819 73.4564 8.17072 73.5622 8.12795C73.6673 8.08514 73.7575 8.01275 73.8209 7.91981C73.8843 7.82686 73.9177 7.71761 73.9177 7.60584C73.9177 7.45606 73.8565 7.31255 73.7486 7.20663C73.6406 7.10075 73.4943 7.04108 73.3413 7.04075Z" fill="white"/>
<path d="M70.7659 7.86328C69.4918 7.86328 69.0316 8.79639 69.0316 8.79639C69.0316 8.79639 68.6516 7.86328 67.3419 7.86328C66.2285 7.86328 65.7322 8.77446 65.7322 8.77446V7.9991H64.4453V13.326H65.8218V9.80832C65.8218 9.80832 66.1662 9.12492 66.8901 9.12492C67.5789 9.12492 67.8649 9.51917 67.8649 10.2464V13.326H69.2414V9.80832C69.2414 9.80832 69.5858 9.12492 70.3102 9.12492C70.9985 9.12492 71.2845 9.51917 71.2845 10.2464V13.326H72.6615V9.90028C72.6749 8.61241 71.8703 7.86328 70.7659 7.86328Z" fill="white"/>
<path d="M60.6717 7.74023C59.0531 7.74023 57.7656 8.9668 57.7656 10.5395C57.7656 12.099 59.0531 13.3387 60.6717 13.3387C62.2896 13.3387 63.5771 12.1034 63.5771 10.5395C63.5771 8.9668 62.2896 7.74023 60.6717 7.74023ZM60.6717 12.1559C59.6924 12.1559 59.0937 11.4112 59.0937 10.5395C59.0937 9.66771 59.6969 8.923 60.6717 8.923C61.6459 8.923 62.2496 9.66771 62.2496 10.5395C62.2496 11.4112 61.6503 12.1559 60.6717 12.1559Z" fill="white"/>
<path d="M54.0775 7.74023C52.4593 7.74023 51.1719 8.9668 51.1719 10.5395C51.1719 12.099 52.4593 13.3387 54.0775 13.3387C55.696 13.3387 56.9829 12.1034 56.9829 10.5395C56.9829 8.9668 55.696 7.74023 54.0775 7.74023ZM54.0775 12.1559C53.0985 12.1559 52.4995 11.4112 52.4995 10.5395C52.4995 9.66771 53.103 8.923 54.0775 8.923C55.052 8.923 55.6554 9.66771 55.6554 10.5395C55.6554 11.4112 55.052 12.1559 54.0775 12.1559Z" fill="white"/>
<path d="M44.784 5.38672V6.67899H48.6328L44.3906 13.3201H50.7517V12.0278H46.7643L50.9842 5.38672H44.784Z" fill="white"/>
<path d="M41.3878 7.86328C40.2389 7.86328 39.7561 8.77446 39.7561 8.77446V7.9991H38.4688V13.326H39.8455V9.80832C39.8455 9.80832 40.2121 9.12492 40.9273 9.12492C41.5263 9.12492 42.0091 9.44908 42.0091 10.2157V13.326H43.386V9.87841C43.386 8.59048 42.4428 7.86328 41.3878 7.86328Z" fill="white"/>
<path d="M37.3299 7.99414H35.9531V13.321H37.3299V7.99414Z" fill="white"/>
<path d="M36.6418 5.38869C36.4624 5.38869 36.2869 5.44084 36.1377 5.53854C35.9884 5.63628 35.8721 5.77516 35.8034 5.93765C35.7348 6.10014 35.7168 6.27894 35.7518 6.45147C35.7868 6.62394 35.8733 6.78239 36.0002 6.90676C36.1271 7.03112 36.2888 7.11583 36.4648 7.15014C36.6408 7.18445 36.8233 7.16683 36.9891 7.09952C37.1549 7.03221 37.2966 6.91827 37.3963 6.77203C37.4961 6.62579 37.5493 6.45381 37.5493 6.27796C37.5499 6.16101 37.5269 6.04505 37.4815 5.93688C37.4362 5.82872 37.3693 5.73043 37.2849 5.64774C37.2005 5.56499 37.1003 5.49954 36.9899 5.45507C36.8795 5.41061 36.7612 5.38804 36.6418 5.38869Z" fill="white"/>
<path d="M32.2181 7.74023C30.5999 7.74023 29.3125 8.9668 29.3125 10.5395C29.3125 12.099 30.5999 13.3387 32.2181 13.3387C33.8363 13.3387 35.1238 12.1034 35.1238 10.5395C35.1238 8.9668 33.8363 7.74023 32.2181 7.74023ZM32.2181 12.1559C31.2392 12.1559 30.6402 11.4112 30.6402 10.5395C30.6402 9.66771 31.2436 8.923 32.2181 8.923C33.1927 8.923 33.7961 9.66771 33.7961 10.5395C33.7961 11.4112 33.1971 12.1559 32.2181 12.1559Z" fill="white"/>
<path fill-rule="evenodd" clip-rule="evenodd" d="M24.2123 6.18062C24.8523 6.00935 25.5325 6.05413 26.1435 6.30766C26.7582 6.56309 27.2702 7.0095 27.6008 7.57802L28.7049 6.9472C28.2371 6.1383 27.5094 5.50371 26.6351 5.1424C25.7648 4.78415 24.7972 4.72094 23.886 4.9628C22.9716 5.20809 22.1654 5.74246 21.5927 6.48286C21.0163 7.2292 20.704 8.13946 20.7031 9.07546C20.7023 10.0115 21.0131 10.9223 21.5883 11.6696C22.0138 12.2235 22.5734 12.6649 23.2167 12.9536C23.86 13.2424 24.5666 13.3695 25.2726 13.3234C25.9785 13.2773 26.6617 13.0595 27.2602 12.6896C27.8587 12.3198 28.3537 11.8096 28.7004 11.2052L27.5963 10.5744C27.2658 11.1429 26.7537 11.5893 26.139 11.8448C25.528 12.0983 24.8478 12.143 24.2078 11.9718C23.5658 11.7993 23 11.4235 22.5986 10.9029C22.1953 10.3759 21.9772 9.73497 21.9772 9.07622C21.9772 8.41748 22.1953 7.77651 22.5986 7.2495C23.0026 6.72968 23.5695 6.35419 24.2123 6.18062Z" fill="white"/>
<path d="M4.02834 3.95572V3.58336H4.03281L14.1132 5.61158V7.03533L6.8088 11.4072L12.5844 12.4979V10.036H18.3062C18.3474 9.69142 18.3683 9.34478 18.3688 8.99782C18.3688 4.03019 14.2562 0 9.18698 0C4.96709 0 1.41326 2.79047 0.335938 6.58849H4.03281V3.95572H4.02834Z" fill="#141414"/>
<path d="M14.2913 14.61L12.7223 14.2947L12.6731 14.2859L4.21095 12.5818V11.0311L11.2739 6.81249L5.68609 5.73047V8.21431H0.0357619C0.0134108 8.4728 0 8.7356 0 9.00281C0 13.9705 4.1126 18.0007 9.18184 18.0007C13.3079 18.0007 16.7991 15.3329 17.9569 11.6619H14.2913V14.61Z" fill="#141414"/>
<path d="M12.5792 10.0367V12.4986L6.80361 11.4078L14.108 7.0359V5.61221L4.03209 3.58398H4.02763V6.59349H0.330755C0.180382 7.12361 0.0801243 7.66618 0.03125 8.2143H5.6861V5.73052L11.2738 6.8169L4.2109 11.0354V12.5818L12.673 14.2815L12.7222 14.2903L14.2912 14.6057V11.6575H17.9568C18.1235 11.1288 18.2402 10.5863 18.3055 10.0367H12.5792Z" fill="#64B32F"/>
</g>
<defs>
<clipPath id="clip0_59_13351">
<rect width="74" height="18" fill="white"/>
</clipPath>
</defs>
</svg>
