<svg width="37" height="14" viewBox="0 0 37 14" fill="none" xmlns="http://www.w3.org/2000/svg">
<g clip-path="url(#clip0_138_9159)">
<path d="M17.4998 6.84011V10.9756H16.1328V0.760478H19.7564C20.6305 0.742615 21.4752 1.06118 22.1029 1.64473C22.7383 2.19405 23.0964 2.98005 23.0824 3.80029C23.101 4.62649 22.743 5.41845 22.1029 5.96925C21.469 6.54982 20.6863 6.84011 19.7564 6.83862L17.4998 6.84011ZM17.4998 2.01838V5.58518H19.7905C20.2989 5.60007 20.7886 5.40803 21.142 5.05671C21.8596 4.38682 21.8766 3.28373 21.1776 2.59449C21.1652 2.58258 21.1544 2.57067 21.142 2.56025C20.7933 2.20149 20.3004 2.00499 19.7905 2.01838H17.4998ZM26.2318 3.75861C27.2423 3.75861 28.0389 4.01764 28.6232 4.53569C29.2075 5.05374 29.4989 5.76531 29.4989 6.66743V10.9756H28.1923V10.005H28.1334C27.5677 10.8044 26.8145 11.2033 25.8753 11.2033C25.074 11.2033 24.4029 10.9756 23.8636 10.5186C23.3397 10.0943 23.0421 9.46608 23.0545 8.80661C23.0545 8.08313 23.3397 7.50851 23.9085 7.08127C24.4773 6.65403 25.2367 6.43966 26.1884 6.43966C26.9989 6.43966 27.6685 6.58257 28.1923 6.86691V6.5662C28.1954 6.11663 27.9878 5.69088 27.6282 5.40506C27.2671 5.09244 26.7959 4.92125 26.3092 4.9272C25.5467 4.9272 24.9423 5.23684 24.4974 5.85463L23.2948 5.12668C23.955 4.21414 24.9345 3.75861 26.2318 3.75861ZM24.4634 8.83639C24.4618 9.1758 24.6307 9.49437 24.9159 9.69236C25.2181 9.92012 25.5932 10.0422 25.9776 10.0347C26.5541 10.0333 27.1074 9.81294 27.515 9.42142C27.9676 9.01205 28.1939 8.5327 28.1939 7.98041C27.7677 7.6544 27.1741 7.49065 26.4115 7.49065C25.8567 7.49065 25.3933 7.61867 25.0229 7.87621C24.6493 8.13821 24.4634 8.45529 24.4634 8.83639ZM37.0002 3.98638L32.439 14.0571H31.0286L32.7211 10.5334L29.7205 3.98638H31.2053L33.3735 9.00758H33.403L35.5124 3.98638H37.0002Z" fill="#1C1C1C"/>
<path d="M11.9772 5.94585C11.9772 5.5454 11.9431 5.14644 11.8718 4.75195H6.10938V7.01172H9.40904C9.27266 7.74116 8.83249 8.38574 8.1893 8.79512V10.2629H10.1592C11.3123 9.2432 11.9772 7.73222 11.9772 5.94585Z" fill="#4285F4"/>
<path d="M6.10707 11.6814C7.75613 11.6814 9.14481 11.1618 10.1569 10.2642L8.187 8.79636C7.63834 9.15363 6.93315 9.35757 6.10707 9.35757C4.51381 9.35757 3.16077 8.32594 2.67721 6.93555H0.648438V8.44801C1.6853 10.4309 3.79777 11.6814 6.10707 11.6814Z" fill="#34A853"/>
<path d="M2.67972 6.93657C2.42399 6.20862 2.42399 5.41815 2.67972 4.6902V3.17773H0.650945C-0.216982 4.83609 -0.216982 6.79068 0.650945 8.44903L2.67972 6.93657Z" fill="#FBBC04"/>
<path d="M6.10707 2.26749C6.9781 2.2541 7.81968 2.56969 8.45047 3.14728L10.1956 1.47256C9.08902 0.475163 7.62439 -0.0726589 6.10707 -0.0562838C3.79777 -0.0562838 1.6853 1.19567 0.648438 3.17706L2.67721 4.68952C3.16077 3.29913 4.51381 2.26749 6.10707 2.26749Z" fill="#EA4335"/>
</g>
<defs>
<clipPath id="clip0_138_9159">
<rect width="37" height="14" fill="white"/>
</clipPath>
</defs>
</svg>
