<svg width="46" height="52" viewBox="0 0 46 52" fill="none" xmlns="http://www.w3.org/2000/svg">
<g clip-path="url(#clip0_6533_230558)">
<path d="M0 11.0199C0 9.06772 0.905797 7.22445 2.45561 6.02263L8.48873 1.34423C9.61202 0.473171 10.9966 0 12.422 0H23V52L13.4167 46.4512L9.35046 43.318C4.18805 39.3401 0.85944 33.4643 0.117359 27.0193L0 26V11.0199Z" fill="#333333"/>
<path d="M5.10938 13.2711C5.10938 12.1221 5.63248 11.0346 6.53269 10.3122L12.0057 5.92025C12.6879 5.37284 13.5386 5.07422 14.4157 5.07422H22.9983V46.9279L15.5445 42.4618L13.1614 40.5614C8.64141 36.9572 5.7458 31.7211 5.10938 26.001V13.2711Z" fill="white"/>
<path d="M46 11.0199C46 9.06772 45.0942 7.22445 43.5444 6.02263L37.5113 1.34423C36.388 0.473171 35.0034 0 33.578 0H23V52L32.5833 46.4512L36.6495 43.318C41.812 39.3401 45.1406 33.4643 45.8826 27.0193L46 26V11.0199Z" fill="black"/>
<path d="M40.8889 13.2711C40.8889 12.1221 40.3658 11.0346 39.4656 10.3122L33.9925 5.92025C33.3104 5.37284 32.4597 5.07422 31.5825 5.07422H23V46.9279L30.4537 42.4618L32.8369 40.5614C37.3569 36.9572 40.2524 31.7211 40.8889 26.001V13.2711Z" fill="#A3A3A3"/>
<mask id="mask0_6533_230558" style="mask-type:luminance" maskUnits="userSpaceOnUse" x="12" y="15" width="12" height="19">
<path d="M23.0035 15.2188H12.7812V33.609H23.0035V15.2188Z" fill="white"/>
</mask>
<g mask="url(#mask0_6533_230558)">
<path d="M14.6953 22.5113L20.0234 28.5357L31.3064 17.1211" stroke="#333333" stroke-width="5"/>
</g>
<mask id="mask1_6533_230558" style="mask-type:luminance" maskUnits="userSpaceOnUse" x="23" y="15" width="11" height="19">
<path d="M33.2222 15.2188H23V33.609H33.2222V15.2188Z" fill="white"/>
</mask>
<g mask="url(#mask1_6533_230558)">
<path d="M14.6953 22.5113L20.0234 28.5357L31.3064 17.1211" stroke="black" stroke-width="5"/>
</g>
</g>
<defs>
<clipPath id="clip0_6533_230558">
<rect width="46" height="52" fill="white"/>
</clipPath>
</defs>
</svg>
