<svg width="24" height="24" viewBox="0 0 24 24" fill="none" xmlns="http://www.w3.org/2000/svg">
<path d="M1.68259 13.0838C1.40013 13.465 1.45102 14.0269 1.79622 14.3389C2.14147 14.6508 2.6503 14.5946 2.93276 14.2134L1.68259 13.0838ZM4.10559 9.81348L1.68259 13.0838L2.93276 14.2134L5.35574 10.9431L4.10559 9.81348Z" fill="#4B4B4B"/>
<path d="M22.3177 13.0838C22.6001 13.465 22.5492 14.0269 22.204 14.3389C21.8588 14.6508 21.35 14.5946 21.0675 14.2134L22.3177 13.0838ZM19.8947 9.81348L22.3177 13.0838L21.0675 14.2134L18.6445 10.9431L19.8947 9.81348Z" fill="#4B4B4B"/>
<path d="M6.16358 16.5202C5.96409 16.9608 6.12578 17.4966 6.52476 17.7168C6.92369 17.9371 7.40888 17.7585 7.60832 17.3179L6.16358 16.5202ZM7.7789 12.9526L6.16358 16.5202L7.60832 17.3179L9.22364 13.7503L7.7789 12.9526Z" fill="#4B4B4B"/>
<path d="M17.8374 16.5202C18.0369 16.9608 17.8752 17.4966 17.4762 17.7168C17.0773 17.9371 16.5921 17.7585 16.3927 17.3179L17.8374 16.5202ZM16.2221 12.9526L17.8374 16.5202L16.3927 17.3179L14.7773 13.7503L16.2221 12.9526Z" fill="#4B4B4B"/>
<path d="M2.30664 8L3.03047 9.18159C4.55242 11.6661 6.88688 13.4028 9.5437 14.0271C10.9847 14.3656 12.474 14.3656 13.915 14.0271C16.5718 13.4028 18.9063 11.6661 20.4282 9.18159L21.152 8" stroke="#4B4B4B" stroke-width="1.3" stroke-linecap="round"/>
<path d="M11.1895 18.1081C11.1895 18.6007 11.5511 19 11.9971 19C12.4432 19 12.8048 18.6007 12.8048 18.1081H11.1895ZM11.1895 14.5405V18.1081H12.8048V14.5405H11.1895Z" fill="#4B4B4B"/>
</svg>
