<svg width="135" height="20" viewBox="0 0 135 20" fill="none" xmlns="http://www.w3.org/2000/svg">
<path d="M12.112 6.14243L8.97 13.8792H6.92L5.374 7.70404C5.28 7.32422 5.199 7.18488 4.913 7.0249C4.447 6.76377 3.677 6.51916 3 6.3664L3.046 6.14243H6.346C6.56165 6.14221 6.77027 6.22156 6.93421 6.36616C7.09815 6.51076 7.2066 6.71109 7.24 6.93098L8.057 11.4083L10.075 6.14243H12.112ZM20.145 11.3536C20.153 9.31106 17.409 9.19856 17.428 8.28616C17.434 8.00852 17.69 7.71333 18.25 7.63798C18.9063 7.57365 19.5672 7.69347 20.163 7.98478L20.503 6.3437C19.923 6.11864 19.3087 6.00225 18.689 6C16.772 6 15.423 7.05277 15.411 8.55864C15.399 9.6723 16.374 10.2926 17.109 10.6642C17.865 11.043 18.119 11.2865 18.115 11.6251C18.11 12.1453 17.513 12.3734 16.955 12.3827C15.98 12.3981 15.415 12.1112 14.963 11.8945L14.612 13.5892C15.065 13.8039 15.901 13.9917 16.768 14C18.805 14 20.138 12.9617 20.145 11.3536ZM25.206 13.8792H27L25.435 6.14243H23.779C23.6021 6.14074 23.4287 6.19396 23.2814 6.29518C23.1341 6.3964 23.0197 6.54095 22.953 6.7101L20.044 13.8792H22.08L22.485 12.7233H24.973L25.206 13.8792ZM23.043 11.1379L24.063 8.23249L24.651 11.1379H23.043ZM14.883 6.14243L13.28 13.8792H11.34L12.945 6.14243H14.883Z" fill="#1732C9"/>
<rect x="0.5" y="0.5" width="29" height="19" rx="3.5" stroke="#D8D8D8"/>
<path d="M47.2969 5.2832H52.7045V14.7165H47.2969V5.2832Z" fill="#FF5F00"/>
<path d="M47.6394 10C47.6394 8.08336 48.5664 6.38333 49.9912 5.2833C48.9441 4.48332 47.6223 4 46.1802 4C42.7639 4 40 6.68329 40 10C40 13.3166 42.7639 16 46.1802 16C47.6222 16 48.944 15.5167 49.9912 14.7166C48.5664 13.6333 47.6394 11.9166 47.6394 10Z" fill="#EB001B"/>
<path d="M59.999 10C59.999 13.3166 57.2352 16 53.8189 16C52.3768 16 51.055 15.5167 50.0078 14.7166C51.4498 13.6167 52.3597 11.9166 52.3597 10C52.3597 8.08336 51.4326 6.38333 50.0078 5.2833C51.0549 4.48332 52.3768 4 53.8189 4C57.2352 4 59.999 6.7 59.999 10Z" fill="#F79E1B"/>
<rect x="35.5" y="0.5" width="29" height="19" rx="3.5" stroke="#D8D8D8"/>
<path d="M78.7773 3.19922H91.2164V16.7992H78.7773V3.19922Z" fill="white"/>
<path d="M78.7773 3.19922V16.7992H91.2164V14.6504H89.4998L88.8654 13.839L88.2061 14.6504H83.33V10.3302H81.7212L83.7323 5.35264H85.6892L86.1619 6.48144V5.35264H88.5917L88.998 6.53584L89.396 5.35264H91.2164V3.19922H78.7773ZM89.8108 6.05522L89.1721 7.89584L89.0022 8.39468L88.8281 7.89584L88.1855 6.05522H86.7799V9.68206H87.6257V7.32028L87.6215 6.84402L87.7874 7.32028L88.596 9.68206H89.4003L90.213 7.32028L90.3705 6.84864V9.68206H91.2164V6.05522H89.8108ZM84.1883 6.05522L82.7205 9.68206H83.6823L83.9395 8.98384H85.5484L85.8054 9.68206H86.7799L85.3203 6.05522H84.1883ZM84.5779 7.28384L84.7438 6.83068L84.9098 7.28384L85.2538 8.1994H84.2338L84.5779 7.28384ZM89.8772 10.3349L88.8778 11.5088L87.8827 10.3349H84.0099V13.9478H86.7799V13.1637H84.8558V12.5334H86.7425V11.7539H84.8558V11.119H86.7799V10.3349L88.3263 12.148L86.7799 13.9478H87.8496L88.8572 12.7693L89.8605 13.9478H90.9591L89.4085 12.1344L90.9591 10.3349H89.8772ZM90.2792 12.1301L91.2164 13.1726V11.1008L90.2792 12.1301Z" fill="#006FCF"/>
<rect x="70.5" y="0.5" width="29" height="19" rx="3.5" stroke="#D8D8D8"/>
<path d="M120.74 11.9577C121.859 11.9577 122.765 11.0792 122.765 9.99547C122.765 8.91174 121.859 8.0332 120.74 8.0332C119.622 8.0332 118.715 8.91174 118.715 9.99547C118.715 11.0792 119.622 11.9577 120.74 11.9577Z" fill="#EF9122"/>
<path d="M118.715 9.99547C118.715 8.90113 119.611 8.0332 120.74 8.0332C121.869 8.0332 122.765 8.90113 122.765 9.99547C122.765 11.0898 121.869 11.9577 120.74 11.9577" fill="#F26E21"/>
<path d="M119.34 8.59924C120.119 7.84452 121.404 7.84452 122.183 8.59924C122.962 9.35396 122.962 10.5992 122.183 11.354" fill="#F44500"/>
<path d="M109.016 8.14844H107.926V11.8466H109.016C109.6 11.8466 110.029 11.6956 110.379 11.4315C110.808 11.0918 111.08 10.5635 111.08 9.99749C111.08 8.90315 110.263 8.14844 109.016 8.14844ZM109.912 10.9409C109.678 11.1296 109.367 11.2428 108.899 11.2428H108.666V8.78995H108.86C109.328 8.78995 109.639 8.86542 109.873 9.09183C110.146 9.31825 110.301 9.65787 110.301 9.99749C110.34 10.3371 110.185 10.7145 109.912 10.9409Z" fill="#333333"/>
<path d="M112.17 8.14844H111.43V11.8466H112.17V8.14844Z" fill="#333333"/>
<path d="M114.042 9.58303C113.575 9.43208 113.458 9.31888 113.458 9.1302C113.458 8.90378 113.692 8.7151 114.003 8.7151C114.237 8.7151 114.432 8.79057 114.626 9.01699L115.016 8.52642C114.704 8.26227 114.315 8.11133 113.886 8.11133C113.224 8.11133 112.679 8.56416 112.679 9.16793C112.679 9.69624 112.913 9.92265 113.614 10.1868C113.925 10.3 114.042 10.3377 114.12 10.4132C114.276 10.4887 114.354 10.6396 114.354 10.7906C114.354 11.0925 114.12 11.3189 113.77 11.3189C113.419 11.3189 113.108 11.1302 112.952 10.8283L112.484 11.2811C112.835 11.7717 113.263 11.9981 113.809 11.9981C114.587 11.9981 115.133 11.5076 115.133 10.7906C115.133 10.1491 114.899 9.88491 114.042 9.58303Z" fill="#333333"/>
<path d="M115.363 9.99609C115.363 11.0904 116.259 11.9206 117.388 11.9206C117.7 11.9206 117.973 11.8451 118.323 11.6942V10.8263C118.012 11.1282 117.739 11.2414 117.427 11.2414C116.687 11.2414 116.142 10.7131 116.142 9.95836C116.142 9.24138 116.687 8.67534 117.388 8.67534C117.739 8.67534 118.012 8.78855 118.323 9.09043V8.22251C118.012 8.07157 117.739 7.99609 117.388 7.99609C116.298 8.07157 115.363 8.93949 115.363 9.99609Z" fill="#333333"/>
<path d="M124.44 10.639L123.427 8.14844H122.609L124.206 11.9598H124.635L126.309 8.14844H125.491L124.44 10.639Z" fill="black"/>
<path d="M126.621 11.8466H128.763V11.2428H127.4V10.2239H128.724V9.5824H127.4V8.78995H128.763V8.14844H126.621V11.8466Z" fill="black"/>
<path d="M130.866 10.2994C131.45 10.1862 131.762 9.80882 131.762 9.24278C131.762 8.56353 131.256 8.14844 130.399 8.14844H129.27V11.8466H130.01V10.3749H130.126L131.178 11.8466H132.074L130.866 10.2994ZM130.243 9.84655H130.01V8.71448H130.243C130.711 8.71448 130.983 8.90315 130.983 9.28051C130.983 9.65787 130.711 9.84655 130.243 9.84655Z" fill="#333333"/>
<path d="M109.016 8.14844H107.926V11.8466H109.016C109.6 11.8466 110.029 11.6956 110.379 11.4315C110.808 11.0918 111.08 10.5635 111.08 9.99749C111.08 8.90315 110.263 8.14844 109.016 8.14844ZM109.912 10.9409C109.678 11.1296 109.367 11.2428 108.899 11.2428H108.666V8.78995H108.86C109.328 8.78995 109.639 8.86542 109.873 9.09183C110.146 9.31825 110.301 9.65787 110.301 9.99749C110.34 10.3371 110.185 10.7145 109.912 10.9409Z" fill="#333333"/>
<path d="M112.174 8.14844H111.434V11.8466H112.174V8.14844Z" fill="#333333"/>
<path d="M114.042 9.58303C113.575 9.43208 113.458 9.31888 113.458 9.1302C113.458 8.90378 113.692 8.7151 114.003 8.7151C114.237 8.7151 114.432 8.79057 114.626 9.01699L115.016 8.52642C114.704 8.26227 114.315 8.11133 113.886 8.11133C113.224 8.11133 112.679 8.56416 112.679 9.16793C112.679 9.69624 112.913 9.92265 113.614 10.1868C113.925 10.3 114.042 10.3377 114.12 10.4132C114.276 10.4887 114.354 10.6396 114.354 10.7906C114.354 11.0925 114.12 11.3189 113.77 11.3189C113.419 11.3189 113.108 11.1302 112.952 10.8283L112.484 11.2811C112.835 11.7717 113.263 11.9981 113.809 11.9981C114.587 11.9981 115.133 11.5076 115.133 10.7906C115.133 10.1491 114.899 9.88491 114.042 9.58303Z" fill="#333333"/>
<path d="M117.429 11.9236C117.74 11.9236 118.013 11.8481 118.363 11.6972V10.8292C118.052 11.1311 117.779 11.2443 117.468 11.2443C116.728 11.2443 116.182 10.716 116.182 9.96131C116.182 9.58395 116.338 9.28206 116.572 9.01791L116.066 8.52734C115.676 8.86697 115.404 9.39527 115.404 9.96131C115.365 11.0934 116.26 11.9236 117.429 11.9236Z" fill="#333333"/>
<path d="M130.866 10.2994C131.45 10.1862 131.762 9.80882 131.762 9.24278C131.762 8.56353 131.256 8.14844 130.399 8.14844H129.27V11.8466H130.01V10.3749H130.126L131.178 11.8466H132.074L130.866 10.2994ZM130.243 9.84655H130.01V8.71448H130.243C130.711 8.71448 130.983 8.90315 130.983 9.28051C130.983 9.65787 130.711 9.84655 130.243 9.84655Z" fill="black"/>
<path d="M128.101 11.2445H127.4V10.5653L126.621 9.81055V11.8483H128.724L128.101 11.2445Z" fill="#333333"/>
<path d="M125.297 8.5258L124.44 10.639L123.427 8.14844H122.609L124.206 11.9598H124.635L125.881 9.09183L125.297 8.5258Z" fill="#333333"/>
<rect x="105.5" y="0.5" width="29" height="19" rx="3.5" stroke="#D8D8D8"/>
</svg>
