<svg width="48" height="13" viewBox="0 0 48 13" fill="none" xmlns="http://www.w3.org/2000/svg">
<g clip-path="url(#clip0_59_3936)">
<path d="M8.13991 0.625689C7.53891 0.204997 6.75465 -0.00585938 5.78714 -0.00585938H2.04145C1.74485 -0.00585938 1.58099 0.145178 1.54986 0.44689L0.0282137 10.1722C0.0123997 10.2677 0.0358702 10.3551 0.0984104 10.4345C0.160593 10.5141 0.238804 10.5537 0.332471 10.5537H2.11165C2.42371 10.5537 2.59523 10.403 2.62671 10.1008L3.04804 7.47895C3.06342 7.35188 3.1183 7.24857 3.21197 7.169C3.30557 7.08959 3.42263 7.03757 3.5631 7.01381C3.70356 6.99021 3.83601 6.97833 3.96109 6.97833C4.08582 6.97833 4.23401 6.98634 4.40596 7.00216C4.57748 7.01804 4.68682 7.02576 4.73369 7.02576C6.0758 7.02576 7.12925 6.6407 7.89412 5.86977C8.65863 5.09913 9.04131 4.0305 9.04131 2.66365C9.04131 1.72609 8.74063 1.04674 8.13991 0.625396V0.625689ZM6.20861 3.54591C6.13033 4.10219 5.92768 4.46751 5.59995 4.64237C5.27215 4.81746 4.80396 4.90445 4.19537 4.90445L3.42278 4.92835L3.82084 2.37775C3.8519 2.2031 3.95329 2.11567 4.1251 2.11567H4.57004C5.19401 2.11567 5.64689 2.20726 5.92782 2.3897C6.20861 2.57257 6.30228 2.95815 6.20861 3.54591Z" fill="#003087"/>
<path d="M47.6678 -0.0078125H45.9355C45.7634 -0.0078125 45.6621 0.0796202 45.6312 0.254411L44.1094 10.1706L44.0859 10.2183C44.0859 10.2981 44.1172 10.3732 44.1797 10.4448C44.2419 10.5161 44.3202 10.552 44.4138 10.552H45.9591C46.2552 10.552 46.4191 10.4013 46.4507 10.0991L47.9724 0.349784V0.326104C47.9722 0.103663 47.8705 -0.00759348 47.6678 -0.00759348V-0.0078125Z" fill="#009CDE"/>
<path d="M26.74 3.83174C26.74 3.75247 26.7086 3.67684 26.6465 3.60544C26.5839 3.53397 26.5136 3.49805 26.4358 3.49805H24.6332C24.4612 3.49805 24.3208 3.5779 24.2117 3.73637L21.7302 7.45513L20.7002 3.87954C20.6218 3.62541 20.4503 3.49805 20.1852 3.49805H18.4292C18.351 3.49805 18.2807 3.53389 18.2187 3.60544C18.1561 3.67684 18.125 3.75255 18.125 3.83174C18.125 3.8638 18.2772 4.33236 18.5815 5.23816C18.8857 6.14409 19.2135 7.12144 19.5647 8.17033C19.9159 9.21907 20.0991 9.7755 20.1148 9.83867C18.835 11.6186 18.1953 12.5722 18.1953 12.6991C18.1953 12.9059 18.2967 13.0091 18.4996 13.0091H20.3022C20.4738 13.0091 20.6142 12.9298 20.7236 12.7708L26.6934 3.99845C26.7244 3.9669 26.74 3.91153 26.74 3.83167V3.83174Z" fill="#003087"/>
<path d="M43.5293 3.497H41.75C41.5314 3.497 41.3991 3.75922 41.3523 4.28367C40.946 3.64833 40.2051 3.33008 39.1281 3.33008C38.0044 3.33008 37.0483 3.75922 36.2603 4.61736C35.472 5.47558 35.0781 6.48483 35.0781 7.64476C35.0781 8.58254 35.3473 9.32935 35.8856 9.88534C36.424 10.4419 37.1458 10.7197 38.0514 10.7197C38.5038 10.7197 38.9642 10.6241 39.4324 10.4336C39.9007 10.2429 40.2671 9.9888 40.5329 9.67084C40.5329 9.6868 40.517 9.75813 40.4861 9.8852C40.4546 10.0126 40.4392 10.1081 40.4392 10.1712C40.4392 10.4258 40.5404 10.5526 40.7436 10.5526H42.3591C42.6552 10.5526 42.8271 10.4019 42.8738 10.0997L43.8337 3.87828C43.8491 3.7829 43.8258 3.69562 43.7635 3.61605C43.7008 3.53685 43.623 3.497 43.5293 3.497ZM40.4743 8.19296C40.0763 8.59026 39.5963 8.78888 39.0345 8.78888C38.5817 8.78888 38.2153 8.66195 37.9342 8.40753C37.6532 8.15376 37.5127 7.8041 37.5127 7.35864C37.5127 6.7711 37.7078 6.2742 38.0981 5.86895C38.4878 5.4637 38.9721 5.26108 39.5495 5.26108C39.9862 5.26108 40.3491 5.39223 40.6381 5.6543C40.9266 5.91653 41.0713 6.2782 41.0713 6.73904C41.0713 7.31106 40.8722 7.79587 40.4743 8.19296Z" fill="#009CDE"/>
<path d="M16.9357 3.497H15.1565C14.9377 3.497 14.8053 3.75922 14.7584 4.28367C14.337 3.64833 13.5956 3.33008 12.5344 3.33008C11.4107 3.33008 10.4546 3.75922 9.66656 4.61736C8.87829 5.47558 8.48438 6.48483 8.48438 7.64476C8.48438 8.58254 8.75364 9.32935 9.2921 9.88534C9.83056 10.4419 10.5522 10.7197 11.4575 10.7197C11.8943 10.7197 12.3472 10.6241 12.8153 10.4336C13.2835 10.2429 13.6581 9.9888 13.939 9.67084C13.8764 9.86144 13.8454 10.0284 13.8454 10.1712C13.8454 10.4258 13.9468 10.5526 14.1497 10.5526H15.765C16.0613 10.5526 16.2332 10.4019 16.2801 10.0997L17.2399 3.87828C17.2553 3.7829 17.2319 3.69562 17.1697 3.61605C17.1072 3.53685 17.0293 3.497 16.9357 3.497ZM13.8806 8.20476C13.4825 8.59463 12.9946 8.78888 12.4175 8.78888C11.9646 8.78888 11.6017 8.66195 11.3288 8.40753C11.0555 8.15376 10.9191 7.8041 10.9191 7.35864C10.9191 6.7711 11.1141 6.2742 11.5044 5.86895C11.8943 5.4637 12.3782 5.26108 12.9559 5.26108C13.3926 5.26108 13.7555 5.39223 14.0445 5.65438C14.333 5.9166 14.4776 6.27828 14.4776 6.73911C14.4776 7.32702 14.2786 7.81584 13.8806 8.20476Z" fill="#003087"/>
<path d="M34.7337 0.623736C34.1328 0.203044 33.3487 -0.0078125 32.381 -0.0078125H28.6587C28.3464 -0.0078125 28.1746 0.143225 28.1437 0.444937L26.622 10.1703C26.6062 10.2658 26.6296 10.3532 26.6922 10.4326C26.7541 10.5122 26.8326 10.5518 26.9262 10.5518H28.8458C29.0331 10.5518 29.1579 10.4486 29.2204 10.242L29.6419 7.477C29.6573 7.34993 29.712 7.24661 29.8057 7.16705C29.8994 7.08763 30.0163 7.03569 30.1569 7.01186C30.2973 6.98825 30.4297 6.97638 30.5549 6.97638C30.6796 6.97638 30.8278 6.98439 30.9996 7.0002C31.1712 7.01609 31.2809 7.02381 31.3273 7.02381C32.6697 7.02381 33.7229 6.63874 34.4878 5.86782C35.2526 5.09718 35.6349 4.02854 35.6349 2.6617C35.6351 1.72421 35.3345 1.04486 34.7337 0.623517V0.623736ZM32.3342 4.54505C31.9908 4.78337 31.4757 4.9025 30.7891 4.9025L30.0399 4.9264L30.4379 2.37579C30.4688 2.20115 30.5702 2.11372 30.7422 2.11372H31.1634C31.5068 2.11372 31.7798 2.1296 31.983 2.16129C32.1856 2.19335 32.381 2.29237 32.5683 2.45922C32.7556 2.62614 32.8492 2.86854 32.8492 3.18636C32.8492 3.85375 32.6774 4.30658 32.3342 4.54505Z" fill="#009CDE"/>
</g>
<defs>
<clipPath id="clip0_59_3936">
<rect width="48" height="13" fill="white"/>
</clipPath>
</defs>
</svg>
