<svg width="141" height="42" viewBox="0 0 141 42" fill="none" xmlns="http://www.w3.org/2000/svg">
<g id="google-play-badge-2022-2 1" clip-path="url(#clip0_1_106038)">
<path id="Vector" d="M135.813 42H5.25738C2.38516 42 0.0351562 39.6375 0.0351562 36.75V5.25C0.0351562 2.3625 2.38516 0 5.25738 0H135.813C138.685 0 141.035 2.3625 141.035 5.25V36.75C141.035 39.6375 138.685 42 135.813 42Z" fill="black"/>
<path id="Vector_2" d="M135.813 0.84C136.976 0.84 138.092 1.30462 138.915 2.13166C139.737 2.95869 140.2 4.0804 140.2 5.25V36.75C140.2 37.9196 139.737 39.0413 138.915 39.8683C138.092 40.6954 136.976 41.16 135.813 41.16H5.25738C4.09396 41.16 2.9782 40.6954 2.15554 39.8683C1.33288 39.0413 0.870712 37.9196 0.870712 36.75V5.25C0.870712 4.0804 1.33288 2.95869 2.15554 2.13166C2.9782 1.30462 4.09396 0.84 5.25738 0.84H135.813ZM135.813 0H5.25738C2.38516 0 0.0351562 2.3625 0.0351562 5.25V36.75C0.0351562 39.6375 2.38516 42 5.25738 42H135.813C138.685 42 141.035 39.6375 141.035 36.75V5.25C141.035 2.3625 138.685 0 135.813 0Z" fill="#A6A6A6"/>
<g id="Group">
<path id="Vector_3" d="M49.5637 10.7463C49.5637 11.6283 49.3026 12.3318 48.7804 12.8463C48.1955 13.4658 47.433 13.7808 46.4826 13.7808C45.5739 13.7808 44.801 13.4658 44.1744 12.8358C43.5477 12.2058 43.2344 11.4183 43.2344 10.4943C43.2344 9.57027 43.5477 8.78277 44.1744 8.15277C44.801 7.52277 45.5739 7.19727 46.4826 7.19727C46.9422 7.19727 47.3808 7.28127 47.7882 7.43877C48.1955 7.60677 48.5297 7.83777 48.7908 8.13177L48.2164 8.70926C48.0284 8.47826 47.7777 8.28927 47.4644 8.16327C47.1548 8.02785 46.8202 7.95986 46.4826 7.96377C45.8037 7.96377 45.2188 8.20527 44.7488 8.67777C44.2788 9.16077 44.049 9.75926 44.049 10.4838C44.049 11.2083 44.2788 11.8068 44.7488 12.2898C45.2188 12.7623 45.7933 13.0038 46.4826 13.0038C47.1093 13.0038 47.621 12.8253 48.0388 12.4788C48.4566 12.1323 48.6968 11.6388 48.7595 11.0298H46.4826V10.2738H49.5219C49.5428 10.4418 49.5637 10.5993 49.5637 10.7463ZM54.3786 7.34426V8.12126H51.5273V10.1163H54.0966V10.8723H51.5273V12.8673H54.3786V13.6443H50.723V7.34426H54.3786ZM57.773 8.12126V13.6443H56.9688V8.12126H55.2142V7.34426H59.5173V8.12126H57.773ZM63.4444 13.6443H62.6402V7.34426H63.4444V13.6443ZM67.0164 8.12126V13.6443H66.2122V8.12126H64.4575V7.34426H68.7606V8.12126H67.0164ZM77.8368 10.4943C77.8368 11.4288 77.5235 12.2058 76.9073 12.8358C76.2806 13.4658 75.5182 13.7808 74.6095 13.7808C73.7008 13.7808 72.9384 13.4658 72.3117 12.8358C71.6955 12.2058 71.3822 11.4288 71.3822 10.4943C71.3822 9.55977 71.6955 8.78277 72.3117 8.15277C72.9279 7.52277 73.6904 7.19727 74.6095 7.19727C75.5182 7.19727 76.2806 7.51227 76.9073 8.15277C77.5339 8.79327 77.8368 9.57027 77.8368 10.4943ZM72.2177 10.4943C72.2177 11.2188 72.4475 11.8278 72.8966 12.3003C73.3562 12.7728 73.9306 13.0143 74.6095 13.0143C75.2884 13.0143 75.8628 12.7728 76.3119 12.3003C76.7715 11.8278 77.0013 11.2293 77.0013 10.4943C77.0013 9.75927 76.7715 9.16077 76.3119 8.68827C75.8524 8.21577 75.2884 7.97427 74.6095 7.97427C73.9306 7.97427 73.3562 8.21577 72.8966 8.68827C72.4475 9.16077 72.2177 9.76977 72.2177 10.4943ZM79.769 13.6443H78.9648V7.34426H79.9466L82.9964 12.2478H83.0277L82.9964 11.0298V7.34426H83.8006V13.6443H82.965L79.7795 8.50977H79.7482L79.7795 9.72777V13.6443H79.769Z" fill="white"/>
<path id="Vector_4" d="M71.2029 22.8334C68.7484 22.8334 66.7431 24.7129 66.7431 27.2959C66.7431 29.8684 68.7484 31.7584 71.2029 31.7584C73.6573 31.7584 75.6627 29.8684 75.6627 27.2959C75.6627 24.7129 73.6573 22.8334 71.2029 22.8334ZM71.2029 30.0049C69.8555 30.0049 68.6962 28.8919 68.6962 27.2959C68.6962 25.6894 69.8555 24.5869 71.2029 24.5869C72.5502 24.5869 73.7095 25.6894 73.7095 27.2959C73.7095 28.8919 72.5398 30.0049 71.2029 30.0049ZM61.4687 22.8334C59.0142 22.8334 57.0089 24.7129 57.0089 27.2959C57.0089 29.8684 59.0142 31.7584 61.4687 31.7584C63.9231 31.7584 65.9284 29.8684 65.9284 27.2959C65.9284 24.7129 63.9231 22.8334 61.4687 22.8334ZM61.4687 30.0049C60.1213 30.0049 58.962 28.8919 58.962 27.2959C58.962 25.6894 60.1213 24.5869 61.4687 24.5869C62.816 24.5869 63.9753 25.6894 63.9753 27.2959C63.9753 28.8919 62.816 30.0049 61.4687 30.0049ZM49.8962 24.2089V26.0989H54.4082C54.2724 27.1594 53.9173 27.9469 53.3847 28.4824C52.7267 29.1439 51.7031 29.8684 49.9067 29.8684C47.1284 29.8684 44.956 27.6214 44.956 24.8284C44.956 22.0354 47.1284 19.7884 49.9067 19.7884C51.4002 19.7884 52.4969 20.3764 53.3011 21.1429L54.6275 19.8094C53.4995 18.7279 52.006 17.8984 49.8962 17.8984C46.0944 17.8984 42.8984 21.0064 42.8984 24.8389C42.8984 28.6609 46.0944 31.7794 49.8962 31.7794C51.9538 31.7794 53.4995 31.1074 54.7111 29.8369C55.954 28.5874 56.3404 26.8234 56.3404 25.4059C56.3404 24.9649 56.3091 24.5554 56.236 24.2194H49.8962V24.2089ZM97.22 25.6789C96.8544 24.6814 95.7264 22.8334 93.4182 22.8334C91.1309 22.8334 89.23 24.6394 89.23 27.2959C89.23 29.7949 91.11 31.7584 93.6375 31.7584C95.6742 31.7584 96.8544 30.5089 97.3349 29.7844L95.8204 28.7659C95.3191 29.5114 94.6298 30.0049 93.6375 30.0049C92.6453 30.0049 91.9351 29.5534 91.486 28.6504L97.4289 26.1829L97.22 25.6789ZM91.1622 27.1699C91.11 25.4479 92.4886 24.5659 93.4809 24.5659C94.2538 24.5659 94.9118 24.9544 95.1311 25.5109L91.1622 27.1699ZM86.3369 31.4959H88.29V18.3709H86.3369V31.4959ZM83.1409 23.8309H83.0678C82.6291 23.3059 81.7935 22.8334 80.7282 22.8334C78.5035 22.8334 76.4669 24.7969 76.4669 27.3169C76.4669 29.8159 78.5035 31.7689 80.7282 31.7689C81.7831 31.7689 82.6291 31.2964 83.0678 30.7504H83.1304V31.3909C83.1304 33.1024 82.2218 34.0159 80.7595 34.0159C79.5689 34.0159 78.8273 33.1549 78.5244 32.4304L76.822 33.1444C77.3129 34.3309 78.608 35.7799 80.7595 35.7799C83.0469 35.7799 84.9791 34.4254 84.9791 31.1284V23.1064H83.1304V23.8309H83.1409ZM80.8953 30.0049C79.548 30.0049 78.42 28.8709 78.42 27.3169C78.42 25.7419 79.548 24.5974 80.8953 24.5974C82.2218 24.5974 83.2662 25.7524 83.2662 27.3169C83.2767 28.8709 82.2322 30.0049 80.8953 30.0049ZM106.369 18.3709H101.701V31.4959H103.654V26.5189H106.38C108.542 26.5189 110.662 24.9439 110.662 22.4449C110.652 19.9459 108.521 18.3709 106.369 18.3709ZM106.411 24.6919H103.643V20.1874H106.411C107.873 20.1874 108.698 21.4054 108.698 22.4344C108.698 23.4634 107.873 24.6919 106.411 24.6919ZM118.464 22.8124C117.054 22.8124 115.592 23.4424 114.986 24.8179L116.72 25.5424C117.085 24.8179 117.775 24.5764 118.495 24.5764C119.498 24.5764 120.532 25.1854 120.542 26.2669V26.4034C120.187 26.2039 119.435 25.8994 118.506 25.8994C116.636 25.8994 114.746 26.9284 114.746 28.8499C114.746 30.6034 116.271 31.7374 117.984 31.7374C119.289 31.7374 120.02 31.1494 120.469 30.4564H120.532V31.4644H122.412V26.4349C122.422 24.1144 120.689 22.8124 118.464 22.8124ZM118.224 30.0049C117.587 30.0049 116.699 29.6794 116.699 28.8919C116.699 27.8839 117.806 27.4954 118.767 27.4954C119.623 27.4954 120.031 27.6844 120.542 27.9364C120.47 28.5048 120.195 29.0274 119.769 29.4077C119.343 29.788 118.794 30.0002 118.224 30.0049ZM129.274 23.0959L127.039 28.7869H126.976L124.658 23.0959H122.558L126.036 31.0549L124.052 35.4754H126.088L131.446 23.0959H129.274ZM111.727 31.4959H113.68V18.3709H111.727V31.4959Z" fill="white"/>
</g>
<path id="Vector_5" d="M21.6741 20.3867L10.5508 32.2517V32.2622C10.6711 32.7117 10.8932 33.1271 11.1996 33.4761C11.506 33.825 11.8885 34.0981 12.3172 34.2739C12.7458 34.4498 13.2092 34.5236 13.6709 34.4898C14.1327 34.4559 14.5805 34.3152 14.9792 34.0787L15.0106 34.0577L27.523 26.8022L21.6741 20.3867Z" fill="#EA4335"/>
<path id="Vector_6" d="M32.9251 18.3812L32.9147 18.3707L27.5149 15.2207L21.4258 20.6702L27.5358 26.8127L32.9147 23.6942C33.3904 23.4353 33.7879 23.0522 34.0653 22.5852C34.3427 22.1182 34.4896 21.5847 34.4907 21.0408C34.4918 20.4969 34.3469 19.9628 34.0714 19.4948C33.7959 19.0267 33.3999 18.642 32.9251 18.3812Z" fill="#FBBC04"/>
<path id="Vector_7" d="M10.5537 9.73828C10.491 9.99028 10.4492 10.2423 10.4492 10.5153V31.4838C10.4492 31.7568 10.4806 32.0088 10.5537 32.2608L22.053 20.7003L10.5537 9.73828Z" fill="#4285F4"/>
<path id="Vector_8" d="M21.7577 20.9966L27.5126 15.2111L15.0106 7.92407C14.6109 7.68383 14.1614 7.53983 13.6971 7.50336C13.2329 7.46689 12.7665 7.53893 12.3346 7.71384C11.9027 7.88875 11.5169 8.16178 11.2074 8.51157C10.898 8.86136 10.6732 9.27841 10.5508 9.73007L21.7577 20.9966Z" fill="#34A853"/>
</g>
<defs>
<clipPath id="clip0_1_106038">
<rect width="141" height="42" fill="white"/>
</clipPath>
</defs>
</svg>
