<svg width="18" height="18" viewBox="0 0 18 18" fill="none" xmlns="http://www.w3.org/2000/svg">
<path d="M2.74759 15.4736C1.888 14.6434 1.20236 13.6503 0.730681 12.5522C0.259 11.4542 0.0107242 10.2732 0.000339811 9.0782C-0.0100445 7.88319 0.217671 6.69807 0.670199 5.59201C1.12273 4.48594 1.791 3.48107 2.63604 2.63604C3.48107 1.791 4.48594 1.12273 5.59201 0.670199C6.69807 0.217671 7.88319 -0.0100445 9.0782 0.000339811C10.2732 0.0107242 11.4542 0.259 12.5522 0.730681C13.6503 1.20236 14.6434 1.888 15.4736 2.74759C17.113 4.44501 18.0202 6.71843 17.9997 9.0782C17.9792 11.438 17.0326 13.6953 15.364 15.364C13.6953 17.0326 11.438 17.9792 9.0782 17.9997C6.71843 18.0202 4.44501 17.113 2.74759 15.4736ZM10.3706 9.11059L12.9176 6.56359L11.6486 5.29459L9.11059 7.84159L6.56359 5.29459L5.29459 6.56359L7.84159 9.11059L5.29459 11.6576L6.56359 12.9266L9.11059 10.3796L11.6576 12.9266L12.9266 11.6576L10.3796 9.11059H10.3706Z" fill="#B80000"/>
</svg>
