<svg width="17" height="17" viewBox="0 0 17 17" fill="none" xmlns="http://www.w3.org/2000/svg">
<path fill-rule="evenodd" clip-rule="evenodd" d="M12.5229 7.06147C12.5229 10.0778 10.0778 12.5229 7.06147 12.5229C4.04518 12.5229 1.6 10.0778 1.6 7.06147C1.6 4.04518 4.04518 1.6 7.06147 1.6C10.0778 1.6 12.5229 4.04518 12.5229 7.06147ZM14.1229 7.06147C14.1229 10.9614 10.9614 14.1229 7.06147 14.1229C3.16153 14.1229 0 10.9614 0 7.06147C0 3.16153 3.16153 0 7.06147 0C10.9614 0 14.1229 3.16153 14.1229 7.06147ZM12.3117 13.4424L15.6347 16.7654C15.9472 17.0779 16.4537 17.0779 16.7661 16.7654C17.0785 16.453 17.0785 15.9465 16.7661 15.6341L13.4431 12.311L12.3117 13.4424Z" fill="#6B6B6B"/>
</svg>
