<svg width="14" height="15" viewBox="0 0 14 15" fill="none" xmlns="http://www.w3.org/2000/svg">
<circle cx="7" cy="7.5" r="6.5" stroke="#6B6B6B"/>
<mask id="path-2-outside-1_8825_13992" maskUnits="userSpaceOnUse" x="4.5" y="3.5" width="5" height="9" fill="black">
<rect fill="white" x="4.5" y="3.5" width="5" height="9"/>
<path d="M6.3608 9.45455V9.41193C6.36553 8.95975 6.41288 8.59991 6.50284 8.33239C6.5928 8.06487 6.72064 7.84825 6.88636 7.68253C7.05208 7.51681 7.25095 7.36411 7.48295 7.22443C7.62263 7.1392 7.74811 7.03859 7.85938 6.92259C7.97064 6.80421 8.05824 6.66809 8.12216 6.5142C8.18845 6.36032 8.22159 6.18987 8.22159 6.00284C8.22159 5.77083 8.16714 5.5696 8.05824 5.39915C7.94934 5.22869 7.80374 5.0973 7.62145 5.00497C7.43916 4.91264 7.23674 4.86648 7.0142 4.86648C6.82008 4.86648 6.63305 4.90672 6.45312 4.98722C6.2732 5.06771 6.12287 5.19437 6.00213 5.36719C5.88139 5.54001 5.81155 5.7661 5.79261 6.04545H4.89773C4.91667 5.64299 5.02083 5.29853 5.21023 5.01207C5.40199 4.72562 5.65412 4.50663 5.96662 4.35511C6.28149 4.2036 6.63068 4.12784 7.0142 4.12784C7.43087 4.12784 7.79309 4.2107 8.10085 4.37642C8.41098 4.54214 8.65009 4.76941 8.81818 5.05824C8.98864 5.34706 9.07386 5.67614 9.07386 6.04545C9.07386 6.30587 9.03362 6.54143 8.95312 6.75213C8.875 6.96283 8.76136 7.15104 8.61222 7.31676C8.46544 7.48248 8.28788 7.62926 8.07955 7.7571C7.87121 7.88731 7.70431 8.02462 7.57884 8.16903C7.45336 8.31108 7.36222 8.48035 7.3054 8.67685C7.24858 8.87334 7.2178 9.11837 7.21307 9.41193V9.45455H6.3608ZM6.81534 11.5568C6.64015 11.5568 6.48982 11.4941 6.36435 11.3686C6.23887 11.2431 6.17614 11.0928 6.17614 10.9176C6.17614 10.7424 6.23887 10.5921 6.36435 10.4666C6.48982 10.3411 6.64015 10.2784 6.81534 10.2784C6.99053 10.2784 7.14086 10.3411 7.26634 10.4666C7.39181 10.5921 7.45455 10.7424 7.45455 10.9176C7.45455 11.0336 7.42495 11.1402 7.36577 11.2372C7.30895 11.3343 7.23201 11.4124 7.13494 11.4716C7.04025 11.5284 6.93371 11.5568 6.81534 11.5568Z"/>
</mask>
<path d="M6.3608 9.45455V9.41193C6.36553 8.95975 6.41288 8.59991 6.50284 8.33239C6.5928 8.06487 6.72064 7.84825 6.88636 7.68253C7.05208 7.51681 7.25095 7.36411 7.48295 7.22443C7.62263 7.1392 7.74811 7.03859 7.85938 6.92259C7.97064 6.80421 8.05824 6.66809 8.12216 6.5142C8.18845 6.36032 8.22159 6.18987 8.22159 6.00284C8.22159 5.77083 8.16714 5.5696 8.05824 5.39915C7.94934 5.22869 7.80374 5.0973 7.62145 5.00497C7.43916 4.91264 7.23674 4.86648 7.0142 4.86648C6.82008 4.86648 6.63305 4.90672 6.45312 4.98722C6.2732 5.06771 6.12287 5.19437 6.00213 5.36719C5.88139 5.54001 5.81155 5.7661 5.79261 6.04545H4.89773C4.91667 5.64299 5.02083 5.29853 5.21023 5.01207C5.40199 4.72562 5.65412 4.50663 5.96662 4.35511C6.28149 4.2036 6.63068 4.12784 7.0142 4.12784C7.43087 4.12784 7.79309 4.2107 8.10085 4.37642C8.41098 4.54214 8.65009 4.76941 8.81818 5.05824C8.98864 5.34706 9.07386 5.67614 9.07386 6.04545C9.07386 6.30587 9.03362 6.54143 8.95312 6.75213C8.875 6.96283 8.76136 7.15104 8.61222 7.31676C8.46544 7.48248 8.28788 7.62926 8.07955 7.7571C7.87121 7.88731 7.70431 8.02462 7.57884 8.16903C7.45336 8.31108 7.36222 8.48035 7.3054 8.67685C7.24858 8.87334 7.2178 9.11837 7.21307 9.41193V9.45455H6.3608ZM6.81534 11.5568C6.64015 11.5568 6.48982 11.4941 6.36435 11.3686C6.23887 11.2431 6.17614 11.0928 6.17614 10.9176C6.17614 10.7424 6.23887 10.5921 6.36435 10.4666C6.48982 10.3411 6.64015 10.2784 6.81534 10.2784C6.99053 10.2784 7.14086 10.3411 7.26634 10.4666C7.39181 10.5921 7.45455 10.7424 7.45455 10.9176C7.45455 11.0336 7.42495 11.1402 7.36577 11.2372C7.30895 11.3343 7.23201 11.4124 7.13494 11.4716C7.04025 11.5284 6.93371 11.5568 6.81534 11.5568Z" fill="#6B6B6B"/>
<path d="M6.3608 9.45455H6.2608V9.55455H6.3608V9.45455ZM6.3608 9.41193L6.2608 9.41088V9.41193H6.3608ZM6.50284 8.33239L6.40806 8.30051L6.50284 8.33239ZM6.88636 7.68253L6.95707 7.75324L6.88636 7.68253ZM7.48295 7.22443L7.53453 7.31011L7.53504 7.3098L7.48295 7.22443ZM7.85938 6.92259L7.93155 6.99181L7.93224 6.99108L7.85938 6.92259ZM8.12216 6.5142L8.03031 6.47464L8.02981 6.47584L8.12216 6.5142ZM6.45312 4.98722L6.41229 4.89593H6.41229L6.45312 4.98722ZM6.00213 5.36719L6.08411 5.42446V5.42446L6.00213 5.36719ZM5.79261 6.04545V6.14545H5.88606L5.89238 6.05222L5.79261 6.04545ZM4.89773 6.04545L4.79784 6.04075L4.79291 6.14545H4.89773V6.04545ZM5.21023 5.01207L5.12713 4.95644L5.12681 4.95692L5.21023 5.01207ZM5.96662 4.35511L5.92326 4.265L5.92299 4.26513L5.96662 4.35511ZM8.10085 4.37642L8.05344 4.46447L8.05372 4.46462L8.10085 4.37642ZM8.81818 5.05824L8.73175 5.10854L8.73206 5.10906L8.81818 5.05824ZM8.95312 6.75213L8.8597 6.71644L8.85936 6.71736L8.95312 6.75213ZM8.61222 7.31676L8.53788 7.24986L8.53736 7.25046L8.61222 7.31676ZM8.07955 7.7571L8.02724 7.67187L8.02655 7.6723L8.07955 7.7571ZM7.57884 8.16903L7.65379 8.23524L7.65432 8.23462L7.57884 8.16903ZM7.21307 9.41193L7.11307 9.41032V9.41193H7.21307ZM7.21307 9.45455V9.55455H7.31307V9.45455H7.21307ZM6.36435 11.3686L6.43506 11.2979L6.36435 11.3686ZM6.36435 10.4666L6.43506 10.5373L6.36435 10.4666ZM7.36577 11.2372L7.28037 11.1851L7.27947 11.1867L7.36577 11.2372ZM7.13494 11.4716L7.18639 11.5573L7.187 11.557L7.13494 11.4716ZM6.4608 9.45455V9.41193H6.2608V9.45455H6.4608ZM6.46079 9.41298C6.46547 8.96577 6.5124 8.6177 6.59763 8.36426L6.40806 8.30051C6.31336 8.58211 6.26559 8.95373 6.2608 9.41088L6.46079 9.41298ZM6.59763 8.36426C6.68366 8.10842 6.80428 7.90604 6.95707 7.75324L6.81565 7.61182C6.63701 7.79046 6.50195 8.02132 6.40806 8.30051L6.59763 8.36426ZM6.95707 7.75324C7.11624 7.59407 7.30843 7.44622 7.53453 7.3101L7.43138 7.13876C7.19346 7.282 6.98793 7.43954 6.81565 7.61182L6.95707 7.75324ZM7.53504 7.3098C7.68195 7.22016 7.8142 7.11415 7.93154 6.99181L7.78721 6.85336C7.68201 6.96303 7.56332 7.05825 7.43087 7.13907L7.53504 7.3098ZM7.93224 6.99108C8.05198 6.86369 8.14608 6.71729 8.21451 6.55257L8.02981 6.47584C7.97039 6.61888 7.88931 6.74474 7.78651 6.85409L7.93224 6.99108ZM8.214 6.55377C8.28626 6.38601 8.32159 6.20189 8.32159 6.00284H8.12159C8.12159 6.17785 8.09063 6.33463 8.03032 6.47464L8.214 6.55377ZM8.32159 6.00284C8.32159 5.75463 8.26313 5.5341 8.14251 5.34531L7.97397 5.45299C8.07115 5.6051 8.12159 5.78704 8.12159 6.00284H8.32159ZM8.14251 5.34531C8.02387 5.15962 7.86471 5.01609 7.66663 4.91576L7.57626 5.09418C7.74277 5.17852 7.8748 5.29777 7.97397 5.45299L8.14251 5.34531ZM7.66663 4.91576C7.46912 4.81572 7.25102 4.76648 7.0142 4.76648V4.96648C7.22247 4.96648 7.4092 5.00956 7.57626 5.09418L7.66663 4.91576ZM7.0142 4.76648C6.80578 4.76648 6.60486 4.80978 6.41229 4.89593L6.49396 5.0785C6.66124 5.00366 6.83437 4.96648 7.0142 4.96648V4.76648ZM6.41229 4.89593C6.21467 4.98434 6.05052 5.12331 5.92015 5.30992L6.08411 5.42446C6.19522 5.26542 6.33173 5.15107 6.49396 5.0785L6.41229 4.89593ZM5.92015 5.30992C5.78612 5.50177 5.71262 5.74698 5.69284 6.03869L5.89238 6.05222C5.91049 5.78522 5.97666 5.57825 6.08411 5.42446L5.92015 5.30992ZM5.79261 5.94545H4.89773V6.14545H5.79261V5.94545ZM4.99762 6.05016C5.01586 5.66254 5.11579 5.33623 5.29364 5.06723L5.12681 4.95692C4.92588 5.26084 4.81748 5.62345 4.79784 6.04075L4.99762 6.05016ZM5.29333 5.0677C5.47514 4.79611 5.71359 4.58893 6.01025 4.44509L5.92299 4.26513C5.59464 4.42433 5.32884 4.65512 5.12713 4.95645L5.29333 5.0677ZM6.00998 4.44522C6.31004 4.30083 6.64421 4.22784 7.0142 4.22784V4.02784C6.61715 4.02784 6.25293 4.10636 5.92326 4.265L6.00998 4.44522ZM7.0142 4.22784C7.41749 4.22784 7.7628 4.30797 8.05344 4.46447L8.14826 4.28837C7.82337 4.11343 7.44425 4.02784 7.0142 4.02784V4.22784ZM8.05372 4.46462C8.34839 4.62207 8.57349 4.8366 8.73175 5.10854L8.90461 5.00794C8.7267 4.70223 8.47358 4.46221 8.14798 4.28822L8.05372 4.46462ZM8.73206 5.10906C8.89253 5.38096 8.97386 5.69215 8.97386 6.04545H9.17386C9.17386 5.66012 9.08475 5.31316 8.9043 5.00741L8.73206 5.10906ZM8.97386 6.04545C8.97386 6.29553 8.93523 6.51875 8.85971 6.71644L9.04654 6.78782C9.132 6.56411 9.17386 6.31621 9.17386 6.04545H8.97386ZM8.85936 6.71736C8.78559 6.91632 8.67852 7.09361 8.53789 7.24986L8.68655 7.38366C8.84421 7.20848 8.96441 7.00934 9.04689 6.7869L8.85936 6.71736ZM8.53736 7.25046C8.39776 7.40806 8.22803 7.54866 8.02724 7.67187L8.13185 7.84233C8.34773 7.70986 8.53311 7.5569 8.68707 7.38306L8.53736 7.25046ZM8.02655 7.6723C7.81206 7.80635 7.63687 7.94978 7.50335 8.10345L7.65432 8.23462C7.77175 8.09947 7.93036 7.96827 8.13255 7.8419L8.02655 7.6723ZM7.50389 8.10283C7.36786 8.25682 7.26993 8.43951 7.20933 8.64907L7.40146 8.70462C7.4545 8.5212 7.53886 8.36533 7.65378 8.23524L7.50389 8.10283ZM7.20933 8.64907C7.14924 8.85688 7.1179 9.1114 7.11308 9.41032L7.31306 9.41354C7.3177 9.12535 7.34792 8.8898 7.40146 8.70462L7.20933 8.64907ZM7.11307 9.41193V9.45455H7.31307V9.41193H7.11307ZM7.21307 9.35455H6.3608V9.55455H7.21307V9.35455ZM6.81534 11.4568C6.66705 11.4568 6.54205 11.4049 6.43506 11.2979L6.29364 11.4393C6.43759 11.5833 6.61325 11.6568 6.81534 11.6568V11.4568ZM6.43506 11.2979C6.32807 11.1909 6.27614 11.0659 6.27614 10.9176H6.07614C6.07614 11.1197 6.14968 11.2954 6.29364 11.4393L6.43506 11.2979ZM6.27614 10.9176C6.27614 10.7693 6.32807 10.6443 6.43506 10.5373L6.29364 10.3959C6.14968 10.5399 6.07614 10.7155 6.07614 10.9176H6.27614ZM6.43506 10.5373C6.54205 10.4303 6.66705 10.3784 6.81534 10.3784V10.1784C6.61325 10.1784 6.43759 10.252 6.29364 10.3959L6.43506 10.5373ZM6.81534 10.3784C6.96363 10.3784 7.08863 10.4303 7.19562 10.5373L7.33705 10.3959C7.19309 10.252 7.01743 10.1784 6.81534 10.1784V10.3784ZM7.19562 10.5373C7.30262 10.6443 7.35455 10.7693 7.35455 10.9176H7.55455C7.55455 10.7155 7.481 10.5399 7.33705 10.3959L7.19562 10.5373ZM7.35455 10.9176C7.35455 11.0156 7.32981 11.1041 7.28039 11.1852L7.45115 11.2893C7.5201 11.1762 7.55455 11.0516 7.55455 10.9176H7.35455ZM7.27947 11.1867C7.2311 11.2693 7.16599 11.3355 7.08288 11.3862L7.187 11.557C7.29803 11.4893 7.3868 11.3992 7.45207 11.2877L7.27947 11.1867ZM7.08349 11.3858C7.00546 11.4327 6.91694 11.4568 6.81534 11.4568V11.6568C6.95048 11.6568 7.07503 11.6242 7.18639 11.5573L7.08349 11.3858Z" fill="#6B6B6B" mask="url(#path-2-outside-1_8825_13992)"/>
</svg>
