<svg width="109" height="28" viewBox="0 0 109 28" fill="none" xmlns="http://www.w3.org/2000/svg">
<g id="CoinZoom 1" clip-path="url(#clip0_1_106050)">
<path id="Vector" d="M53.9609 8.46875C53.2179 8.46875 52.633 9.08288 52.6172 9.8263C52.6172 10.5859 53.2179 11.1839 53.945 11.2C54.688 11.2 55.2729 10.5859 55.2887 9.84247C55.3045 9.08288 54.7196 8.46875 53.9609 8.46875C53.9767 8.46875 53.9767 8.46875 53.9609 8.46875Z" fill="#141414"/>
<path id="Vector_2" d="M54.9765 12.4688H52.9531V20.6302H54.9765V12.4688Z" fill="#141414"/>
<path id="Vector_3" d="M47.483 12.084C45.1118 12.084 43.2148 13.9587 43.2148 16.3829C43.3097 18.791 45.3015 20.6657 47.6568 20.5525C49.8699 20.4556 51.6404 18.6455 51.7353 16.3829C51.7511 13.9587 49.8541 12.084 47.483 12.084ZM47.483 18.8394C46.0444 18.8394 45.175 17.692 45.175 16.3668C45.175 15.0415 46.0602 13.8941 47.483 13.8941C48.9057 13.8941 49.7909 15.0415 49.7909 16.3668C49.7909 17.692 48.9215 18.8394 47.483 18.8394Z" fill="#141414"/>
<path id="Vector_4" d="M79.5728 12.084C77.2016 12.084 75.3047 13.9587 75.3047 16.3829C75.3047 18.791 77.2174 20.7465 79.5728 20.7465C81.9282 20.7465 83.8409 18.791 83.8409 16.3829C83.8251 13.9587 81.944 12.084 79.5728 12.084ZM79.5728 18.8394C78.1343 18.8394 77.2491 17.692 77.2491 16.3668C77.2491 15.0415 78.1343 13.8941 79.5728 13.8941C81.0113 13.8941 81.8965 15.0415 81.8965 16.3668C81.8965 17.692 81.0113 18.8394 79.5728 18.8394Z" fill="#141414"/>
<path id="Vector_5" d="M89.2447 12.084C86.8735 12.084 84.9766 13.9587 84.9766 16.3829C84.9766 18.791 86.8893 20.7465 89.2447 20.7465C91.6 20.7465 93.5128 18.791 93.5128 16.3829C93.5128 13.9587 91.6158 12.084 89.2447 12.084ZM89.2447 18.8394C87.8062 18.8394 86.9209 17.692 86.9209 16.3668C86.9209 15.0415 87.8062 13.8941 89.2447 13.8941C90.6832 13.8941 91.5684 15.0415 91.5684 16.3668C91.5684 17.692 90.6832 18.8394 89.2447 18.8394Z" fill="#141414"/>
<path id="Vector_6" d="M60.9363 12.25C59.9562 12.25 59.0393 12.7833 58.5493 13.6399V12.4439H56.6523V20.6216H58.6757V15.2237C58.6757 15.2237 59.2132 14.1732 60.2565 14.1732C61.1418 14.1732 61.8373 14.6742 61.8373 15.854V20.6216H63.8607V15.3368C63.8765 13.3651 62.4854 12.25 60.9363 12.25Z" fill="#141414"/>
<path id="Vector_7" d="M65.9128 8.4771V10.4488H71.572L65.3438 20.6305H74.6704V18.6426H68.8215L75.0181 8.46094L65.9128 8.4771Z" fill="#141414"/>
<path id="Vector_8" d="M104.057 12.25C102.191 12.25 101.511 13.6884 101.511 13.6884C101.511 13.6884 100.958 12.25 99.0296 12.25C97.4014 12.25 96.6585 13.6399 96.6585 13.6399V12.4439H94.7773V20.6216H96.8007V15.2237C96.8007 15.2237 97.3066 14.1732 98.3657 14.1732C99.3774 14.1732 99.7884 14.7712 99.7884 15.8863V20.6216H101.812V15.2237C101.812 15.2237 102.318 14.1732 103.377 14.1732C104.388 14.1732 104.799 14.7712 104.799 15.8863V20.6216H106.823V15.3691C106.855 13.3975 105.669 12.25 104.057 12.25Z" fill="#141414"/>
<path id="Vector_9" d="M107.804 11.9665H107.678V12.3544H107.52V11.3686H107.883C108.041 11.3524 108.183 11.4817 108.183 11.6433V11.6595C108.183 11.7888 108.089 11.918 107.962 11.9342L108.183 12.3382H107.994L107.804 11.9665ZM107.867 11.8049C107.946 11.8049 108.025 11.7564 108.025 11.6595C108.025 11.6595 108.025 11.6595 108.025 11.6433C108.025 11.5463 107.962 11.4817 107.867 11.4817H107.693V11.7888L107.867 11.8049Z" fill="#141414"/>
<path id="Vector_10" d="M107.82 12.855C107.282 12.855 106.855 12.4025 106.855 11.853C106.855 11.3035 107.298 10.8672 107.836 10.8672C108.373 10.8672 108.8 11.3197 108.8 11.853C108.8 12.4025 108.373 12.855 107.82 12.855C107.836 12.855 107.836 12.855 107.82 12.855ZM107.82 10.9965C107.346 10.9965 106.966 11.3844 106.966 11.8692C106.966 12.354 107.346 12.7419 107.82 12.7419C108.294 12.7419 108.673 12.354 108.673 11.8692C108.673 11.3844 108.294 10.9965 107.82 10.9965Z" fill="#141414"/>
<path id="Vector_11" d="M35.7353 9.66662C36.6679 9.40804 37.6796 9.47268 38.5649 9.86056C39.4659 10.2484 40.2247 10.9434 40.6989 11.8161L42.3271 10.8464C41.6474 9.60197 40.5725 8.63229 39.292 8.0828C38.0116 7.53332 36.5889 7.43635 35.261 7.80806C33.9174 8.17977 32.7318 9.004 31.894 10.1353C30.1551 12.4949 30.1551 15.7271 31.894 18.0867C33.9648 20.8988 37.8851 21.4644 40.6357 19.3473C41.3312 18.814 41.9003 18.1513 42.3271 17.3756L40.7147 16.4221C40.2247 17.2948 39.4817 17.9736 38.5807 18.3614C37.6796 18.7493 36.6838 18.814 35.7511 18.5554C34.8026 18.2968 33.9806 17.715 33.3957 16.9231C32.1785 15.2585 32.1785 12.9797 33.3957 11.3151C33.9648 10.5232 34.7868 9.94136 35.7353 9.66662Z" fill="#141414"/>
<path id="Vector_12" d="M6.11348 6.27695V5.7113L20.9096 8.81429V10.9961L10.1919 17.703L18.6649 19.3838V15.6021H27.0588C27.9283 8.03854 22.6484 1.20228 15.2504 0.313403C8.64273 -0.478505 2.46188 3.77194 0.691406 10.3173H6.11348V6.27695Z" fill="#141414"/>
<path id="Vector_13" d="M21.1762 22.5942L18.8682 22.1094L18.7892 22.0932L6.38007 19.4912V17.1155L16.75 10.651L8.52993 8.98633V12.8004H0.246643C0.215027 13.2044 0.199219 13.6085 0.199219 14.0125C0.199219 21.6245 6.22199 27.7982 13.6675 27.7982C19.5796 27.7982 24.812 23.871 26.5508 18.0852H21.1762V22.5942Z" fill="#141414"/>
<path id="Vector_14" d="M18.6661 15.5958V19.3776L10.1931 17.6968L20.9108 10.9898V8.80806L6.1147 5.70508V10.3111H0.692618C0.471309 11.1191 0.329039 11.9595 0.25 12.7999H8.5491V8.98584L16.7533 10.6505L6.38343 17.115V19.4907L18.8084 22.0927L18.8874 22.1089L21.1953 22.5937V18.0685H26.57C26.8071 17.2605 26.981 16.4201 27.0758 15.5797L18.6661 15.5958Z" fill="#71B73B"/>
</g>
<defs>
<clipPath id="clip0_1_106050">
<rect width="109" height="28" fill="white"/>
</clipPath>
</defs>
</svg>
